<svg width="354" height="218" viewBox="0 0 354 218" fill="none" xmlns="http://www.w3.org/2000/svg">
<path d="M174.419 2.42474C175.624 1.11851 177.687 1.11851 178.891 2.42474L191.5 16.0966C192.518 17.2006 194.189 17.3964 195.435 16.5575L213.067 4.68419C214.598 3.65289 216.688 4.21267 217.499 5.87144L224.397 19.9828C225.108 21.4373 226.833 22.08 228.323 21.4451L249.539 12.3992C251.414 11.5996 253.53 12.8349 253.755 14.861L255.22 28.0262C255.423 29.8528 257.187 31.0833 258.972 30.6433L281.869 24.9961C284.1 24.4458 286.112 26.4732 285.545 28.7002L282.652 40.061C282.132 42.1032 283.795 44.0428 285.893 43.8394L308.496 41.6479C311.031 41.4022 312.727 44.1926 311.343 46.3294L305.195 55.8194C303.915 57.7948 305.268 60.4128 307.619 60.5124L328.329 61.3896C331.058 61.5051 332.263 64.8788 330.227 66.6977L321.339 74.6336C319.454 76.3166 320.324 79.4307 322.809 79.8931L340.67 83.2171C343.462 83.7366 344.082 87.4583 341.611 88.8557L329.946 95.4504C327.671 96.7365 327.97 100.103 330.435 100.969L345.136 106.13C347.848 107.082 347.848 110.918 345.136 111.87L330.435 117.031C327.97 117.897 327.671 121.264 329.946 122.55L341.611 129.144C344.082 130.542 343.462 134.263 340.67 134.783L322.809 138.107C320.324 138.569 319.454 141.683 321.339 143.366L330.227 151.302C332.263 153.121 331.058 156.495 328.329 156.61L307.619 157.488C305.268 157.587 303.915 160.205 305.195 162.181L311.343 171.671C312.727 173.807 311.031 176.598 308.496 176.352L285.893 174.161C283.795 173.957 282.132 175.897 282.652 177.939L285.545 189.3C286.112 191.527 284.1 193.554 281.869 193.004L258.972 187.357C257.187 186.917 255.423 188.147 255.22 189.974L253.755 203.139C253.53 205.165 251.414 206.4 249.539 205.601L228.323 196.555C226.833 195.92 225.108 196.563 224.397 198.017L217.499 212.129C216.688 213.787 214.598 214.347 213.067 213.316L195.435 201.442C194.189 200.604 192.518 200.799 191.5 201.903L178.891 215.575C177.687 216.881 175.624 216.881 174.419 215.575L161.811 201.903C160.792 200.799 159.121 200.604 157.875 201.442L140.243 213.316C138.712 214.347 136.622 213.787 135.811 212.129L128.914 198.017C128.203 196.563 126.477 195.92 124.988 196.555L103.771 205.601C101.896 206.4 99.7804 205.165 99.555 203.139L98.0903 189.974C97.8871 188.147 96.123 186.917 94.3387 187.357L71.4416 193.004C69.2104 193.554 67.1983 191.527 67.7654 189.3L70.6587 177.939C71.1788 175.897 69.5149 173.957 67.4173 174.161L44.814 176.352C42.2798 176.598 40.5831 173.807 41.9674 171.671L48.1152 162.181C49.3949 160.205 48.0425 157.587 45.6909 157.488L24.9811 156.61C22.2527 156.495 21.0468 153.121 23.0838 151.302L31.9712 143.366C33.856 141.683 32.9859 138.569 30.5017 138.107L12.6401 134.783C9.84874 134.263 9.22794 130.542 11.6996 129.144L23.3643 122.55C25.639 121.264 25.3405 117.897 22.8749 117.031L8.17457 111.87C5.46234 110.918 5.46234 107.082 8.17457 106.13L22.8749 100.969C25.3405 100.103 25.639 96.7365 23.3643 95.4504L11.6996 88.8557C9.22795 87.4583 9.84873 83.7366 12.6401 83.2171L30.5017 79.8931C32.9859 79.4307 33.856 76.3166 31.9712 74.6336L23.0838 66.6977C21.0468 64.8788 22.2527 61.5051 24.9811 61.3896L45.6909 60.5124C48.0425 60.4128 49.3949 57.7948 48.1152 55.8194L41.9674 46.3294C40.5831 44.1926 42.2798 41.4022 44.814 41.6479L67.4173 43.8394C69.5149 44.0428 71.1788 42.1032 70.6587 40.061L67.7654 28.7002C67.1983 26.4732 69.2104 24.4458 71.4416 24.9961L94.3387 30.6433C96.123 31.0833 97.8871 29.8528 98.0903 28.0262L99.555 14.861C99.7804 12.8349 101.896 11.5996 103.771 12.3992L124.988 21.4451C126.477 22.08 128.203 21.4373 128.914 19.9828L135.811 5.87144C136.622 4.21267 138.712 3.65289 140.243 4.68419L157.875 16.5575C159.121 17.3964 160.792 17.2006 161.811 16.0966L174.419 2.42474Z" fill="#FFBF01"/>
<path d="M82.1522 95.7902L85.1762 77.8702H117.208L103.32 157.054H83.1602L94.0242 95.7902H82.1522ZM181.77 92.7662H146.154L143.242 108.782C145.258 106.99 147.722 105.609 150.634 104.638C153.621 103.593 156.757 103.07 160.042 103.07C166.687 103.07 171.653 104.974 174.938 108.782C178.223 112.516 179.866 117.369 179.866 123.342C179.866 125.209 179.679 127.337 179.306 129.726C177.813 138.164 174.229 144.884 168.554 149.886C162.879 154.814 155.711 157.278 147.05 157.278C138.837 157.278 132.453 155.412 127.898 151.678C123.418 147.87 121.178 142.756 121.178 136.334C121.178 134.99 121.29 133.534 121.514 131.966H140.218C140.069 134.505 140.703 136.596 142.122 138.238C143.615 139.881 145.893 140.702 148.954 140.702C152.239 140.702 154.853 139.694 156.794 137.678C158.81 135.588 160.117 132.825 160.714 129.39C160.938 128.27 161.05 127.262 161.05 126.366C161.05 123.753 160.303 121.737 158.81 120.318C157.317 118.825 155.189 118.078 152.426 118.078C150.111 118.078 147.983 118.638 146.042 119.758C144.175 120.804 142.794 122.185 141.898 123.902H123.194L131.706 75.9662H184.682L181.77 92.7662Z" fill="#01274F"/>
<rect x="168.704" y="127.542" width="84.6499" height="42.325" rx="21.1625" fill="#FFBF01"/>
<path d="M206.834 78.904C209.036 78.904 210.791 79.52 212.098 80.752C213.404 81.9467 214.058 83.608 214.058 85.736C214.058 86.296 214.002 86.8933 213.89 87.528C213.404 90.1787 212.228 92.2693 210.362 93.8C208.532 95.3307 206.367 96.096 203.866 96.096C201.7 96.096 199.964 95.4987 198.658 94.304C197.351 93.1093 196.698 91.4667 196.698 89.376C196.698 88.816 196.754 88.2 196.866 87.528C197.314 84.8773 198.452 82.7867 200.282 81.256C202.148 79.688 204.332 78.904 206.834 78.904ZM230.522 79.408L201.122 119H194.906L224.25 79.408H230.522ZM201.29 87.528C201.215 87.8267 201.178 88.2373 201.178 88.76C201.178 89.8053 201.476 90.6453 202.074 91.28C202.671 91.8773 203.474 92.176 204.482 92.176C205.751 92.176 206.834 91.7653 207.73 90.944C208.626 90.0853 209.204 88.9467 209.466 87.528C209.54 87.0053 209.578 86.632 209.578 86.408C209.578 85.288 209.279 84.4107 208.682 83.776C208.084 83.1413 207.244 82.824 206.162 82.824C204.93 82.824 203.866 83.2533 202.97 84.112C202.074 84.9707 201.514 86.1093 201.29 87.528ZM221.562 102.312C223.727 102.312 225.463 102.909 226.77 104.104C228.076 105.261 228.73 106.885 228.73 108.976C228.73 109.573 228.674 110.208 228.562 110.88C228.114 113.531 226.956 115.64 225.09 117.208C223.26 118.739 221.095 119.504 218.594 119.504C216.391 119.504 214.636 118.907 213.33 117.712C212.023 116.48 211.37 114.8 211.37 112.672C211.37 112.075 211.426 111.477 211.538 110.88C212.023 108.229 213.199 106.139 215.066 104.608C216.932 103.077 219.098 102.312 221.562 102.312ZM215.85 112.056C215.85 113.139 216.148 113.997 216.746 114.632C217.343 115.267 218.164 115.584 219.21 115.584C220.442 115.584 221.506 115.155 222.402 114.296C223.335 113.437 223.914 112.299 224.138 110.88C224.212 110.619 224.25 110.227 224.25 109.704C224.25 108.621 223.951 107.781 223.354 107.184C222.756 106.549 221.935 106.232 220.89 106.232C219.471 106.232 218.276 106.792 217.306 107.912C216.335 108.995 215.85 110.376 215.85 112.056Z" fill="white"/>
<path d="M191.774 133.97C194.13 133.97 196.169 134.439 197.892 135.376C199.615 136.314 200.932 137.644 201.844 139.366C202.781 141.089 203.25 143.078 203.25 145.332C203.25 146.396 203.161 147.422 202.984 148.41C202.553 150.944 201.641 153.198 200.248 155.174C198.855 157.15 197.094 158.696 194.966 159.81C192.863 160.9 190.545 161.444 188.012 161.444C185.631 161.444 183.579 160.976 181.856 160.038C180.133 159.101 178.803 157.784 177.866 156.086C176.954 154.389 176.498 152.413 176.498 150.158C176.498 149.196 176.599 148.132 176.802 146.966C177.233 144.433 178.145 142.191 179.538 140.24C180.957 138.264 182.717 136.732 184.82 135.642C186.923 134.528 189.241 133.97 191.774 133.97ZM191.432 137.998C189.76 137.998 188.189 138.391 186.72 139.176C185.276 139.936 184.06 141.038 183.072 142.482C182.084 143.901 181.413 145.573 181.058 147.498C180.931 148.157 180.868 148.904 180.868 149.74C180.868 152.122 181.539 153.996 182.882 155.364C184.225 156.707 186.061 157.378 188.392 157.378C190.064 157.378 191.622 156.998 193.066 156.238C194.51 155.453 195.726 154.351 196.714 152.932C197.727 151.488 198.399 149.804 198.728 147.878C198.855 147.22 198.918 146.46 198.918 145.598C198.918 143.242 198.247 141.393 196.904 140.05C195.561 138.682 193.737 137.998 191.432 137.998ZM225.602 134.312L224.994 137.808H213.48L212.036 146.13H221.536L220.928 149.474H211.428L209.376 161.14H205.044L209.756 134.312H225.602ZM245.307 134.312L244.699 137.808H233.185L231.741 146.13H241.241L240.633 149.474H231.133L229.081 161.14H224.749L229.461 134.312H245.307Z" fill="white"/>
</svg>
