<svg width="354" height="218" viewBox="0 0 354 218" fill="none" xmlns="http://www.w3.org/2000/svg">
<path d="M174.419 2.42474C175.624 1.11851 177.687 1.11851 178.891 2.42474L191.5 16.0966C192.518 17.2006 194.189 17.3964 195.435 16.5575L213.067 4.68419C214.598 3.65289 216.688 4.21267 217.499 5.87144L224.397 19.9828C225.108 21.4373 226.833 22.08 228.323 21.4451L249.539 12.3992C251.414 11.5996 253.53 12.8349 253.755 14.861L255.22 28.0262C255.423 29.8528 257.187 31.0833 258.972 30.6433L281.869 24.9961C284.1 24.4458 286.112 26.4732 285.545 28.7002L282.652 40.061C282.132 42.1032 283.795 44.0428 285.893 43.8394L308.496 41.6479C311.031 41.4022 312.727 44.1926 311.343 46.3294L305.195 55.8194C303.915 57.7948 305.268 60.4128 307.619 60.5124L328.329 61.3896C331.058 61.5051 332.263 64.8788 330.227 66.6977L321.339 74.6336C319.454 76.3166 320.324 79.4307 322.809 79.8931L340.67 83.2171C343.462 83.7366 344.082 87.4583 341.611 88.8557L329.946 95.4504C327.671 96.7365 327.97 100.103 330.435 100.969L345.136 106.13C347.848 107.082 347.848 110.918 345.136 111.87L330.435 117.031C327.97 117.897 327.671 121.264 329.946 122.55L341.611 129.144C344.082 130.542 343.462 134.263 340.67 134.783L322.809 138.107C320.324 138.569 319.454 141.683 321.339 143.366L330.227 151.302C332.263 153.121 331.058 156.495 328.329 156.61L307.619 157.488C305.268 157.587 303.915 160.205 305.195 162.181L311.343 171.671C312.727 173.807 311.031 176.598 308.496 176.352L285.893 174.161C283.795 173.957 282.132 175.897 282.652 177.939L285.545 189.3C286.112 191.527 284.1 193.554 281.869 193.004L258.972 187.357C257.187 186.917 255.423 188.147 255.22 189.974L253.755 203.139C253.53 205.165 251.414 206.4 249.539 205.601L228.323 196.555C226.833 195.92 225.108 196.563 224.397 198.017L217.499 212.129C216.688 213.787 214.598 214.347 213.067 213.316L195.435 201.442C194.189 200.604 192.518 200.799 191.5 201.903L178.891 215.575C177.687 216.881 175.624 216.881 174.419 215.575L161.811 201.903C160.792 200.799 159.121 200.604 157.875 201.442L140.243 213.316C138.712 214.347 136.622 213.787 135.811 212.129L128.914 198.017C128.203 196.563 126.477 195.92 124.988 196.555L103.771 205.601C101.896 206.4 99.7804 205.165 99.555 203.139L98.0903 189.974C97.8871 188.147 96.123 186.917 94.3387 187.357L71.4416 193.004C69.2104 193.554 67.1983 191.527 67.7654 189.3L70.6587 177.939C71.1788 175.897 69.5149 173.957 67.4173 174.161L44.814 176.352C42.2798 176.598 40.5831 173.807 41.9674 171.671L48.1152 162.181C49.3949 160.205 48.0425 157.587 45.6909 157.488L24.9811 156.61C22.2527 156.495 21.0468 153.121 23.0838 151.302L31.9712 143.366C33.856 141.683 32.9859 138.569 30.5017 138.107L12.6401 134.783C9.84874 134.263 9.22794 130.542 11.6996 129.144L23.3643 122.55C25.639 121.264 25.3405 117.897 22.8749 117.031L8.17457 111.87C5.46234 110.918 5.46234 107.082 8.17457 106.13L22.8749 100.969C25.3405 100.103 25.639 96.7365 23.3643 95.4504L11.6996 88.8557C9.22795 87.4583 9.84873 83.7366 12.6401 83.2171L30.5017 79.8931C32.9859 79.4307 33.856 76.3166 31.9712 74.6336L23.0838 66.6977C21.0468 64.8788 22.2527 61.5051 24.9811 61.3896L45.6909 60.5124C48.0425 60.4128 49.3949 57.7948 48.1152 55.8194L41.9674 46.3294C40.5831 44.1926 42.2798 41.4022 44.814 41.6479L67.4173 43.8394C69.5149 44.0428 71.1788 42.1032 70.6587 40.061L67.7654 28.7002C67.1983 26.4732 69.2104 24.4458 71.4416 24.9961L94.3387 30.6433C96.123 31.0833 97.8871 29.8528 98.0903 28.0262L99.555 14.861C99.7804 12.8349 101.896 11.5996 103.771 12.3992L124.988 21.4451C126.477 22.08 128.203 21.4373 128.914 19.9828L135.811 5.87144C136.622 4.21267 138.712 3.65289 140.243 4.68419L157.875 16.5575C159.121 17.3964 160.792 17.2006 161.811 16.0966L174.419 2.42474Z" fill="#FFBF01"/>
<path d="M82.712 135.385C90.8507 129.561 97.3467 124.745 102.2 120.937C107.053 117.129 111.235 113.247 114.744 109.289C118.328 105.257 120.419 101.412 121.016 97.7532C121.24 96.7079 121.352 95.7372 121.352 94.8412C121.352 92.6759 120.755 91.0332 119.56 89.9132C118.44 88.7932 116.723 88.2332 114.408 88.2332C108.659 88.2332 105 92.3026 103.432 100.441H84.84C86.7813 91.0332 90.8133 83.9772 96.936 79.2732C103.133 74.4946 110.227 72.1052 118.216 72.1052C125.981 72.1052 131.731 73.8599 135.464 77.3692C139.272 80.8786 141.176 85.5079 141.176 91.2572C141.176 93.0492 141.027 94.6919 140.728 96.1852C139.384 103.801 135.427 110.895 128.856 117.465C122.36 124.036 114.296 130.607 104.664 137.177H134.904L132.104 152.745H75.88L78.344 138.521L82.712 135.385ZM147.592 113.097C149.758 100.703 153.939 90.8839 160.136 83.6412C166.408 76.3239 175.07 72.6652 186.12 72.6652C195.006 72.6652 201.502 75.0919 205.608 79.9452C209.79 84.7239 211.88 91.4066 211.88 99.9932C211.88 103.503 211.432 107.871 210.536 113.097C208.371 125.492 204.152 135.348 197.88 142.665C191.608 149.908 182.947 153.529 171.896 153.529C163.011 153.529 156.515 151.14 152.408 146.361C148.376 141.508 146.36 134.788 146.36 126.201C146.36 122.244 146.771 117.876 147.592 113.097ZM191.608 113.097C192.43 108.468 192.84 104.847 192.84 102.233C192.84 98.4999 192.094 95.6252 190.6 93.6092C189.107 91.5932 186.568 90.5852 182.984 90.5852C177.832 90.5852 174.062 92.5639 171.672 96.5212C169.358 100.479 167.603 106.004 166.408 113.097C165.587 117.727 165.176 121.348 165.176 123.961C165.176 127.695 165.923 130.569 167.416 132.585C168.91 134.601 171.448 135.609 175.032 135.609C180.184 135.609 183.918 133.631 186.232 129.673C188.622 125.716 190.414 120.191 191.608 113.097Z" fill="#01274F"/>
<rect x="189" y="125" width="71" height="43" rx="17.5956" fill="#FFBF01"/>
<path d="M216.872 87.032C217.32 84.3813 218.477 82.2907 220.344 80.76C222.211 79.2293 224.395 78.464 226.896 78.464C229.061 78.464 230.797 79.0613 232.104 80.256C233.411 81.4507 234.064 83.0933 234.064 85.184C234.064 85.744 234.008 86.36 233.896 87.032C233.448 89.6827 232.291 91.792 230.424 93.36C228.557 94.8907 226.373 95.656 223.872 95.656C221.707 95.656 219.971 95.0587 218.664 93.864C217.357 92.6693 216.704 91.0267 216.704 88.936C216.704 88.3387 216.76 87.704 216.872 87.032ZM250.472 79.024L221.24 118H214.968L244.2 79.024H250.472ZM226.224 82.328C223.835 82.328 222.379 83.896 221.856 87.032C221.744 87.6293 221.688 88.1707 221.688 88.656C221.688 90.7467 222.64 91.792 224.544 91.792C225.627 91.792 226.541 91.4 227.288 90.616C228.072 89.832 228.613 88.6373 228.912 87.032C229.024 86.472 229.08 85.9493 229.08 85.464C229.08 84.4187 228.819 83.6347 228.296 83.112C227.811 82.5893 227.12 82.328 226.224 82.328ZM231.712 109.936C232.16 107.285 233.317 105.195 235.184 103.664C237.051 102.133 239.235 101.368 241.736 101.368C243.864 101.368 245.581 101.965 246.888 103.16C248.195 104.317 248.848 105.941 248.848 108.032C248.848 108.629 248.792 109.264 248.68 109.936C248.232 112.587 247.075 114.696 245.208 116.264C243.341 117.795 241.176 118.56 238.712 118.56C236.547 118.56 234.811 117.963 233.504 116.768C232.197 115.573 231.544 113.931 231.544 111.84C231.544 111.243 231.6 110.608 231.712 109.936ZM241.008 105.232C239.888 105.232 238.936 105.624 238.152 106.408C237.405 107.155 236.901 108.331 236.64 109.936C236.528 110.533 236.472 111.075 236.472 111.56C236.472 112.605 236.715 113.389 237.2 113.912C237.723 114.397 238.432 114.64 239.328 114.64C241.643 114.64 243.099 113.072 243.696 109.936C243.808 109.376 243.864 108.853 243.864 108.368C243.864 107.323 243.603 106.539 243.08 106.016C242.595 105.493 241.904 105.232 241.008 105.232Z" fill="white"/>
<path d="M207.726 157.266C205.497 157.266 203.534 156.797 201.836 155.86C200.139 154.923 198.822 153.605 197.884 151.908C196.947 150.211 196.478 148.285 196.478 146.132C196.478 143.117 197.15 140.407 198.492 138C199.86 135.568 201.735 133.668 204.116 132.3C206.523 130.932 209.208 130.248 212.172 130.248C214.427 130.248 216.403 130.717 218.1 131.654C219.798 132.591 221.115 133.909 222.052 135.606C222.99 137.278 223.458 139.191 223.458 141.344C223.458 144.359 222.774 147.082 221.406 149.514C220.064 151.946 218.189 153.846 215.782 155.214C213.401 156.582 210.716 157.266 207.726 157.266ZM208.334 153.352C210.412 153.352 212.248 152.82 213.844 151.756C215.466 150.692 216.72 149.273 217.606 147.5C218.518 145.701 218.974 143.751 218.974 141.648C218.974 139.343 218.316 137.531 216.998 136.214C215.706 134.871 213.895 134.2 211.564 134.2C209.487 134.2 207.638 134.732 206.016 135.796C204.42 136.835 203.179 138.241 202.292 140.014C201.406 141.787 200.962 143.738 200.962 145.866C200.962 148.171 201.608 149.995 202.9 151.338C204.218 152.681 206.029 153.352 208.334 153.352ZM245.581 130.59L244.973 133.972H233.763L232.357 141.99H241.097L240.489 145.334H231.749L229.697 157H225.365L230.039 130.59H245.581ZM265.138 130.59L264.53 133.972H253.32L251.914 141.99H260.654L260.046 145.334H251.306L249.254 157H244.922L249.596 130.59H265.138Z" fill="white"/>
</svg>
