<svg width="354" height="218" viewBox="0 0 354 218" fill="none" xmlns="http://www.w3.org/2000/svg">
<path d="M174.419 2.42474C175.624 1.11851 177.687 1.11851 178.891 2.42474L191.5 16.0966C192.518 17.2006 194.189 17.3964 195.435 16.5575L213.067 4.68419C214.598 3.65289 216.688 4.21267 217.499 5.87144L224.397 19.9828C225.108 21.4373 226.833 22.08 228.323 21.4451L249.539 12.3992C251.414 11.5996 253.53 12.8349 253.755 14.861L255.22 28.0262C255.423 29.8528 257.187 31.0833 258.972 30.6433L281.869 24.9961C284.1 24.4458 286.112 26.4732 285.545 28.7002L282.652 40.061C282.132 42.1033 283.795 44.0428 285.893 43.8394L308.496 41.6479C311.031 41.4022 312.727 44.1926 311.343 46.3294L305.195 55.8194C303.915 57.7948 305.268 60.4128 307.619 60.5124L328.329 61.3896C331.058 61.5051 332.263 64.8788 330.227 66.6977L321.339 74.6336C319.454 76.3166 320.324 79.4307 322.809 79.8931L340.67 83.2171C343.462 83.7366 344.082 87.4583 341.611 88.8557L329.946 95.4504C327.671 96.7365 327.97 100.103 330.435 100.969L345.136 106.13C347.848 107.082 347.848 110.918 345.136 111.87L330.435 117.031C327.97 117.897 327.671 121.264 329.946 122.55L341.611 129.144C344.082 130.542 343.462 134.263 340.67 134.783L322.809 138.107C320.324 138.569 319.454 141.683 321.339 143.366L330.227 151.302C332.263 153.121 331.058 156.495 328.329 156.61L307.619 157.488C305.268 157.587 303.915 160.205 305.195 162.181L311.343 171.671C312.727 173.807 311.031 176.598 308.496 176.352L285.893 174.161C283.795 173.957 282.132 175.897 282.652 177.939L285.545 189.3C286.112 191.527 284.1 193.554 281.869 193.004L258.972 187.357C257.187 186.917 255.423 188.147 255.22 189.974L253.755 203.139C253.53 205.165 251.414 206.4 249.539 205.601L228.323 196.555C226.833 195.92 225.108 196.563 224.397 198.017L217.499 212.129C216.688 213.787 214.598 214.347 213.067 213.316L195.435 201.442C194.189 200.604 192.518 200.799 191.5 201.903L178.891 215.575C177.687 216.881 175.624 216.881 174.419 215.575L161.811 201.903C160.792 200.799 159.121 200.604 157.875 201.442L140.243 213.316C138.712 214.347 136.622 213.787 135.811 212.129L128.914 198.017C128.203 196.563 126.477 195.92 124.988 196.555L103.771 205.601C101.896 206.4 99.7804 205.165 99.555 203.139L98.0903 189.974C97.8871 188.147 96.123 186.917 94.3387 187.357L71.4416 193.004C69.2104 193.554 67.1983 191.527 67.7654 189.3L70.6587 177.939C71.1788 175.897 69.5149 173.957 67.4173 174.161L44.814 176.352C42.2798 176.598 40.5831 173.807 41.9674 171.671L48.1152 162.181C49.3949 160.205 48.0425 157.587 45.6909 157.488L24.9811 156.61C22.2527 156.495 21.0468 153.121 23.0838 151.302L31.9712 143.366C33.856 141.683 32.9859 138.569 30.5017 138.107L12.6401 134.783C9.84874 134.263 9.22794 130.542 11.6996 129.144L23.3643 122.55C25.639 121.264 25.3405 117.897 22.8749 117.031L8.17457 111.87C5.46234 110.918 5.46234 107.082 8.17457 106.13L22.8749 100.969C25.3405 100.103 25.639 96.7365 23.3643 95.4504L11.6996 88.8557C9.22795 87.4583 9.84874 83.7366 12.6401 83.2171L30.5017 79.8931C32.9859 79.4307 33.856 76.3166 31.9712 74.6336L23.0838 66.6977C21.0468 64.8788 22.2527 61.5051 24.9811 61.3896L45.6909 60.5124C48.0425 60.4128 49.3949 57.7948 48.1152 55.8194L41.9674 46.3294C40.5831 44.1926 42.2798 41.4022 44.814 41.6479L67.4173 43.8394C69.5149 44.0428 71.1788 42.1032 70.6587 40.061L67.7654 28.7002C67.1983 26.4732 69.2104 24.4458 71.4416 24.9961L94.3387 30.6433C96.123 31.0833 97.8871 29.8528 98.0903 28.0262L99.555 14.861C99.7804 12.8349 101.896 11.5996 103.771 12.3992L124.988 21.4451C126.477 22.08 128.203 21.4373 128.914 19.9828L135.811 5.87144C136.622 4.21267 138.712 3.65289 140.243 4.68419L157.875 16.5575C159.121 17.3964 160.792 17.2006 161.811 16.0966L174.419 2.42474Z" fill="#FFBF01"/>
<path d="M87.416 95.1772C89.1333 87.1879 92.8293 81.0279 98.504 76.6972C104.179 72.3666 111.235 70.2012 119.672 70.2012C127.064 70.2012 132.739 71.8812 136.696 75.2412C140.653 78.6012 142.632 82.9692 142.632 88.3452C142.632 89.6892 142.52 91.0332 142.296 92.3772C141.4 97.3052 139.459 101.337 136.472 104.473C133.485 107.535 130.237 109.625 126.728 110.745V111.193C130.088 112.388 132.701 114.255 134.568 116.793C136.435 119.257 137.368 122.393 137.368 126.201C137.368 127.844 137.219 129.412 136.92 130.905C135.651 137.924 132.253 143.636 126.728 148.041C121.203 152.372 114.259 154.537 105.896 154.537C97.9067 154.537 91.5973 152.783 86.968 149.273C82.4133 145.764 80.136 140.425 80.136 133.257C80.136 132.287 80.2853 130.532 80.584 127.993H99.176C99.0267 129.188 98.952 130.009 98.952 130.457C98.952 133.071 99.6987 135.087 101.192 136.505C102.685 137.924 104.925 138.633 107.912 138.633C111.272 138.633 113.96 137.551 115.976 135.385C117.992 133.22 119 130.457 119 127.097C119 124.335 117.955 122.356 115.864 121.161C113.848 119.892 110.637 119.257 106.232 119.257H102.648L105.448 103.689H109.032C117.469 103.689 122.248 100.703 123.368 94.7292C123.517 93.8332 123.592 93.1612 123.592 92.7132C123.592 90.6226 122.957 89.0172 121.688 87.8972C120.493 86.7772 118.739 86.2172 116.424 86.2172C113.587 86.2172 111.309 87.0759 109.592 88.7932C107.875 90.5106 106.68 92.6386 106.008 95.1772H87.416ZM213.245 88.7932H178.301L175.613 104.249C177.405 102.607 179.719 101.263 182.557 100.217C185.394 99.1719 188.381 98.6492 191.517 98.6492C198.535 98.6492 203.687 100.553 206.973 104.361C210.333 108.169 212.013 113.097 212.013 119.145C212.013 120.937 211.826 123.028 211.453 125.417C209.885 134.153 206.189 141.097 200.365 146.249C194.541 151.327 187.149 153.865 178.189 153.865C169.975 153.865 163.666 151.999 159.261 148.265C154.855 144.457 152.653 139.38 152.653 133.033C152.653 132.361 152.727 131.204 152.877 129.561H171.469C171.543 131.876 172.327 133.817 173.821 135.385C175.314 136.879 177.517 137.625 180.429 137.625C183.938 137.625 186.738 136.505 188.829 134.265C190.919 132.025 192.338 129.039 193.085 125.305C193.234 124.559 193.309 123.551 193.309 122.281C193.309 116.756 190.359 113.993 184.461 113.993C181.922 113.993 179.719 114.628 177.853 115.897C176.061 117.092 174.717 118.697 173.821 120.713H155.341L163.853 71.9932H216.157L213.245 88.7932Z" fill="#01274F"/>
<rect x="189" y="125" width="71" height="43" rx="17.5956" fill="#FFBF01"/>
<path d="M225.776 77.904C227.979 77.904 229.733 78.52 231.04 79.752C232.347 80.9467 233 82.608 233 84.736C233 85.296 232.944 85.8933 232.832 86.528C232.347 89.1787 231.171 91.2693 229.304 92.8C227.475 94.3307 225.309 95.096 222.808 95.096C220.643 95.096 218.907 94.4987 217.6 93.304C216.293 92.1093 215.64 90.4667 215.64 88.376C215.64 87.816 215.696 87.2 215.808 86.528C216.256 83.8773 217.395 81.7867 219.224 80.256C221.091 78.688 223.275 77.904 225.776 77.904ZM249.464 78.408L220.064 118H213.848L243.192 78.408H249.464ZM220.232 86.528C220.157 86.8267 220.12 87.2373 220.12 87.76C220.12 88.8053 220.419 89.6453 221.016 90.28C221.613 90.8773 222.416 91.176 223.424 91.176C224.693 91.176 225.776 90.7653 226.672 89.944C227.568 89.0853 228.147 87.9467 228.408 86.528C228.483 86.0053 228.52 85.632 228.52 85.408C228.52 84.288 228.221 83.4107 227.624 82.776C227.027 82.1413 226.187 81.824 225.104 81.824C223.872 81.824 222.808 82.2533 221.912 83.112C221.016 83.9707 220.456 85.1093 220.232 86.528ZM240.504 101.312C242.669 101.312 244.405 101.909 245.712 103.104C247.019 104.261 247.672 105.885 247.672 107.976C247.672 108.573 247.616 109.208 247.504 109.88C247.056 112.531 245.899 114.64 244.032 116.208C242.203 117.739 240.037 118.504 237.536 118.504C235.333 118.504 233.579 117.907 232.272 116.712C230.965 115.48 230.312 113.8 230.312 111.672C230.312 111.075 230.368 110.477 230.48 109.88C230.965 107.229 232.141 105.139 234.008 103.608C235.875 102.077 238.04 101.312 240.504 101.312ZM234.792 111.056C234.792 112.139 235.091 112.997 235.688 113.632C236.285 114.267 237.107 114.584 238.152 114.584C239.384 114.584 240.448 114.155 241.344 113.296C242.277 112.437 242.856 111.299 243.08 109.88C243.155 109.619 243.192 109.227 243.192 108.704C243.192 107.621 242.893 106.781 242.296 106.184C241.699 105.549 240.877 105.232 239.832 105.232C238.413 105.232 237.219 105.792 236.248 106.912C235.277 107.995 234.792 109.376 234.792 111.056Z" fill="white"/>
<path d="M211.45 129.83C213.806 129.83 215.846 130.299 217.568 131.236C219.291 132.173 220.608 133.503 221.52 135.226C222.458 136.949 222.926 138.937 222.926 141.192C222.926 142.256 222.838 143.282 222.66 144.27C222.23 146.803 221.318 149.058 219.924 151.034C218.531 153.01 216.77 154.555 214.642 155.67C212.54 156.759 210.222 157.304 207.688 157.304C205.307 157.304 203.255 156.835 201.532 155.898C199.81 154.961 198.48 153.643 197.542 151.946C196.63 150.249 196.174 148.273 196.174 146.018C196.174 145.055 196.276 143.991 196.478 142.826C196.909 140.293 197.821 138.051 199.214 136.1C200.633 134.124 202.394 132.591 204.496 131.502C206.599 130.387 208.917 129.83 211.45 129.83ZM211.108 133.858C209.436 133.858 207.866 134.251 206.396 135.036C204.952 135.796 203.736 136.898 202.748 138.342C201.76 139.761 201.089 141.433 200.734 143.358C200.608 144.017 200.544 144.764 200.544 145.6C200.544 147.981 201.216 149.856 202.558 151.224C203.901 152.567 205.738 153.238 208.068 153.238C209.74 153.238 211.298 152.858 212.742 152.098C214.186 151.313 215.402 150.211 216.39 148.792C217.404 147.348 218.075 145.663 218.404 143.738C218.531 143.079 218.594 142.319 218.594 141.458C218.594 139.102 217.923 137.253 216.58 135.91C215.238 134.542 213.414 133.858 211.108 133.858ZM245.278 130.172L244.67 133.668H233.156L231.712 141.99H241.212L240.604 145.334H231.104L229.052 157H224.72L229.432 130.172H245.278ZM264.983 130.172L264.375 133.668H252.861L251.417 141.99H260.917L260.309 145.334H250.809L248.757 157H244.425L249.137 130.172H264.983Z" fill="white"/>
</svg>
