<svg width="20" height="20" viewBox="0 0 20 20" fill="none" xmlns="http://www.w3.org/2000/svg">
<g id="Frame">
<g id="Group">
<path id="7-Check" d="M3.05534 9.25979C2.71016 9.26076 2.37232 9.35944 2.08089 9.5444C1.78945 9.72937 1.55634 9.99306 1.40853 10.305C1.26071 10.6169 1.20422 10.9643 1.24561 11.307C1.28699 11.6497 1.42455 11.9736 1.64238 12.2414L6.28584 17.9296C6.4514 18.1352 6.66362 18.2983 6.90488 18.4054C7.14614 18.5125 7.40947 18.5605 7.67299 18.5454C8.23661 18.5151 8.74545 18.2136 9.06988 17.7179L18.7155 2.18356C18.7171 2.18097 18.7188 2.1784 18.7205 2.17587C18.811 2.03691 18.7816 1.76152 18.5948 1.58852C18.5435 1.54102 18.483 1.50452 18.417 1.48127C18.3511 1.45803 18.2811 1.44854 18.2113 1.45338C18.1415 1.45822 18.0735 1.47729 18.0114 1.50941C17.9493 1.54154 17.8944 1.58604 17.8501 1.64018C17.8466 1.64444 17.8431 1.64863 17.8394 1.65276L8.11164 12.6437C8.07463 12.6855 8.02967 12.7196 7.97939 12.7439C7.9291 12.7682 7.87448 12.7822 7.81871 12.7852C7.76294 12.7883 7.70713 12.7802 7.65451 12.7614C7.6019 12.7427 7.55353 12.7137 7.51222 12.6761L4.28376 9.73818C3.94846 9.43081 3.51021 9.26014 3.05534 9.25979Z" fill="#FFBF01"/>
</g>
</g>
</svg>
