<svg width="354" height="218" viewBox="0 0 354 218" fill="none" xmlns="http://www.w3.org/2000/svg">
<path d="M174.419 2.42474C175.624 1.11851 177.687 1.11851 178.891 2.42474L191.5 16.0966C192.518 17.2006 194.189 17.3964 195.435 16.5575L213.067 4.68419C214.598 3.65289 216.688 4.21267 217.499 5.87144L224.397 19.9828C225.108 21.4373 226.833 22.08 228.323 21.4451L249.539 12.3992C251.414 11.5996 253.53 12.8349 253.755 14.861L255.22 28.0262C255.423 29.8528 257.187 31.0833 258.972 30.6433L281.869 24.9961C284.1 24.4458 286.112 26.4732 285.545 28.7002L282.652 40.061C282.132 42.1033 283.795 44.0428 285.893 43.8394L308.496 41.6479C311.031 41.4022 312.727 44.1926 311.343 46.3294L305.195 55.8194C303.915 57.7948 305.268 60.4128 307.619 60.5124L328.329 61.3896C331.058 61.5051 332.263 64.8788 330.227 66.6977L321.339 74.6336C319.454 76.3166 320.324 79.4307 322.809 79.8931L340.67 83.2171C343.462 83.7366 344.082 87.4583 341.611 88.8557L329.946 95.4504C327.671 96.7365 327.97 100.103 330.435 100.969L345.136 106.13C347.848 107.082 347.848 110.918 345.136 111.87L330.435 117.031C327.97 117.897 327.671 121.264 329.946 122.55L341.611 129.144C344.082 130.542 343.462 134.263 340.67 134.783L322.809 138.107C320.324 138.569 319.454 141.683 321.339 143.366L330.227 151.302C332.263 153.121 331.058 156.495 328.329 156.61L307.619 157.488C305.268 157.587 303.915 160.205 305.195 162.181L311.343 171.671C312.727 173.807 311.031 176.598 308.496 176.352L285.893 174.161C283.795 173.957 282.132 175.897 282.652 177.939L285.545 189.3C286.112 191.527 284.1 193.554 281.869 193.004L258.972 187.357C257.187 186.917 255.423 188.147 255.22 189.974L253.755 203.139C253.53 205.165 251.414 206.4 249.539 205.601L228.323 196.555C226.833 195.92 225.108 196.563 224.397 198.017L217.499 212.129C216.688 213.787 214.598 214.347 213.067 213.316L195.435 201.442C194.189 200.604 192.518 200.799 191.5 201.903L178.891 215.575C177.687 216.881 175.624 216.881 174.419 215.575L161.811 201.903C160.792 200.799 159.121 200.604 157.875 201.442L140.243 213.316C138.712 214.347 136.622 213.787 135.811 212.129L128.914 198.017C128.203 196.563 126.477 195.92 124.988 196.555L103.771 205.601C101.896 206.4 99.7804 205.165 99.555 203.139L98.0903 189.974C97.8871 188.147 96.123 186.917 94.3387 187.357L71.4416 193.004C69.2104 193.554 67.1983 191.527 67.7654 189.3L70.6587 177.939C71.1788 175.897 69.5149 173.957 67.4173 174.161L44.814 176.352C42.2798 176.598 40.5831 173.807 41.9674 171.671L48.1152 162.181C49.3949 160.205 48.0425 157.587 45.6909 157.488L24.9811 156.61C22.2527 156.495 21.0468 153.121 23.0838 151.302L31.9712 143.366C33.856 141.683 32.9859 138.569 30.5017 138.107L12.6401 134.783C9.84874 134.263 9.22794 130.542 11.6996 129.144L23.3643 122.55C25.639 121.264 25.3405 117.897 22.8749 117.031L8.17457 111.87C5.46234 110.918 5.46234 107.082 8.17457 106.13L22.8749 100.969C25.3405 100.103 25.639 96.7365 23.3643 95.4504L11.6996 88.8557C9.22795 87.4583 9.84874 83.7366 12.6401 83.2171L30.5017 79.8931C32.9859 79.4307 33.856 76.3166 31.9712 74.6336L23.0838 66.6977C21.0468 64.8788 22.2527 61.5051 24.9811 61.3896L45.6909 60.5124C48.0425 60.4128 49.3949 57.7948 48.1152 55.8194L41.9674 46.3294C40.5831 44.1926 42.2798 41.4022 44.814 41.6479L67.4173 43.8394C69.5149 44.0428 71.1788 42.1032 70.6587 40.061L67.7654 28.7002C67.1983 26.4732 69.2104 24.4458 71.4416 24.9961L94.3387 30.6433C96.123 31.0833 97.8871 29.8528 98.0903 28.0262L99.555 14.861C99.7804 12.8349 101.896 11.5996 103.771 12.3992L124.988 21.4451C126.477 22.08 128.203 21.4373 128.914 19.9828L135.811 5.87144C136.622 4.21267 138.712 3.65289 140.243 4.68419L157.875 16.5575C159.121 17.3964 160.792 17.2006 161.811 16.0966L174.419 2.42474Z" fill="#FFBF01"/>
<path d="M143.189 67.896L141.694 76.3046H123.88L122.261 85.7097H135.59L134.095 93.8069H120.766L117.652 111.621H107.001L114.724 67.896H143.189ZM156.697 83.156C158.316 81.0798 160.164 79.4604 162.24 78.2977C164.358 77.0936 166.559 76.4915 168.843 76.4915L166.85 87.7652H163.922C161.265 87.7652 159.168 88.3465 157.631 89.5092C156.095 90.6303 155.078 92.6235 154.579 95.4886L151.714 111.621H141.063L147.167 76.8652H157.818L156.697 83.156ZM189.38 76.3669C193.865 76.3669 197.415 77.5918 200.031 80.0417C202.689 82.4501 204.018 85.7513 204.018 89.9452C204.018 91.3155 203.914 92.5404 203.706 93.62C203.54 94.5751 203.291 95.5924 202.959 96.672H178.854C178.813 96.9212 178.792 97.3157 178.792 97.8555C178.792 99.6825 179.29 101.074 180.287 102.029C181.283 102.984 182.612 103.461 184.273 103.461C186.931 103.461 188.965 102.34 190.377 100.098H201.713C200.218 103.627 197.789 106.513 194.426 108.755C191.062 110.998 187.284 112.119 183.09 112.119C178.605 112.119 175.013 110.873 172.314 108.382C169.657 105.89 168.328 102.506 168.328 98.2292C168.328 96.9419 168.452 95.6132 168.702 94.2429C169.324 90.6303 170.612 87.4745 172.563 84.7755C174.515 82.0764 176.944 80.0002 179.851 78.5469C182.757 77.0936 185.934 76.3669 189.38 76.3669ZM193.242 91.2532C193.325 90.6718 193.367 90.2774 193.367 90.0697C193.367 88.4088 192.848 87.1423 191.81 86.2703C190.772 85.3568 189.401 84.9 187.699 84.9C185.872 84.9 184.252 85.4606 182.84 86.5817C181.47 87.6614 180.474 89.2185 179.851 91.2532H193.242ZM227.762 76.3669C232.246 76.3669 235.796 77.5918 238.412 80.0417C241.07 82.4501 242.399 85.7513 242.399 89.9452C242.399 91.3155 242.295 92.5404 242.087 93.62C241.921 94.5751 241.672 95.5924 241.34 96.672H217.235C217.194 96.9212 217.173 97.3157 217.173 97.8555C217.173 99.6825 217.671 101.074 218.668 102.029C219.664 102.984 220.993 103.461 222.654 103.461C225.312 103.461 227.346 102.34 228.758 100.098H240.094C238.599 103.627 236.17 106.513 232.807 108.755C229.443 110.998 225.665 112.119 221.471 112.119C216.986 112.119 213.394 110.873 210.695 108.382C208.038 105.89 206.709 102.506 206.709 98.2292C206.709 96.9419 206.834 95.6132 207.083 94.2429C207.706 90.6303 208.993 87.4745 210.944 84.7755C212.896 82.0764 215.325 80.0002 218.232 78.5469C221.139 77.0936 224.315 76.3669 227.762 76.3669ZM231.623 91.2532C231.706 90.6718 231.748 90.2774 231.748 90.0697C231.748 88.4088 231.229 87.1423 230.191 86.2703C229.153 85.3568 227.782 84.9 226.08 84.9C224.253 84.9 222.633 85.4606 221.222 86.5817C219.851 87.6614 218.855 89.2185 218.232 91.2532H231.623Z" fill="#01274F"/>
<mask id="path-3-outside-1_2062_44" maskUnits="userSpaceOnUse" x="93.5029" y="125.054" width="163" height="39" fill="black">
<rect fill="white" x="93.5029" y="125.054" width="163" height="39"/>
<path d="M125.074 137.484C124.728 139.437 123.925 141.059 122.665 142.35C121.405 143.642 119.893 144.54 118.129 145.044C119.704 145.39 120.948 146.162 121.861 147.359C122.775 148.556 123.232 149.958 123.232 151.564C123.232 152.068 123.184 152.557 123.09 153.029C122.617 155.801 121.263 158.006 119.026 159.644C116.79 161.251 113.939 162.054 110.474 162.054H95.0227L100.882 128.884H115.813C118.806 128.884 121.121 129.498 122.759 130.727C124.397 131.955 125.216 133.656 125.216 135.83C125.216 136.365 125.169 136.917 125.074 137.484ZM111.844 142.35C113.199 142.35 114.285 142.051 115.104 141.453C115.923 140.854 116.428 139.988 116.617 138.854C116.648 138.665 116.664 138.413 116.664 138.098C116.664 137.184 116.365 136.491 115.766 136.019C115.167 135.515 114.285 135.263 113.12 135.263H107.828L106.599 142.35H111.844ZM115.057 151.942C115.12 151.564 115.152 151.281 115.152 151.092C115.152 150.178 114.821 149.47 114.159 148.966C113.498 148.43 112.584 148.162 111.419 148.162H105.56L104.237 155.628H110.19C111.576 155.628 112.679 155.313 113.498 154.683C114.317 154.053 114.837 153.139 115.057 151.942ZM138.219 162.432C135.951 162.432 133.935 161.975 132.171 161.062C130.407 160.148 129.036 158.857 128.06 157.187C127.115 155.518 126.642 153.58 126.642 151.375C126.642 148.383 127.351 145.658 128.769 143.201C130.186 140.744 132.139 138.822 134.628 137.436C137.116 136.019 139.888 135.31 142.944 135.31C145.212 135.31 147.228 135.783 148.992 136.728C150.788 137.641 152.174 138.933 153.15 140.602C154.127 142.272 154.615 144.209 154.615 146.414C154.615 149.438 153.89 152.179 152.441 154.636C151.024 157.061 149.055 158.967 146.535 160.353C144.046 161.739 141.274 162.432 138.219 162.432ZM139.353 155.486C140.676 155.486 141.857 155.093 142.897 154.305C143.968 153.486 144.787 152.446 145.354 151.186C145.952 149.895 146.252 148.556 146.252 147.17C146.252 145.595 145.826 144.382 144.976 143.532C144.125 142.681 143.054 142.256 141.763 142.256C140.408 142.256 139.211 142.665 138.172 143.484C137.164 144.272 136.376 145.312 135.809 146.603C135.242 147.895 134.958 149.249 134.958 150.667C134.958 152.21 135.368 153.407 136.187 154.258C137.006 155.077 138.061 155.486 139.353 155.486ZM167.218 152.982C167.186 153.139 167.171 153.344 167.171 153.596C167.171 154.163 167.328 154.573 167.643 154.825C167.99 155.077 168.541 155.203 169.297 155.203H172.179L170.951 162.054H166.84C161.548 162.054 158.902 159.833 158.902 155.392C158.902 154.73 158.98 153.895 159.138 152.887L161.028 142.398H157.815L158.996 135.688H162.209L163.343 129.262H171.423L170.289 135.688H175.581L174.4 142.398H169.108L167.218 152.982ZM186.414 152.982C186.382 153.139 186.366 153.344 186.366 153.596C186.366 154.163 186.524 154.573 186.839 154.825C187.185 155.077 187.737 155.203 188.493 155.203H191.375L190.146 162.054H186.036C180.743 162.054 178.097 159.833 178.097 155.392C178.097 154.73 178.176 153.895 178.334 152.887L180.224 142.398H177.011L178.192 135.688H181.405L182.539 129.262H190.619L189.485 135.688H194.777L193.596 142.398H188.304L186.414 152.982ZM208.917 127.088L202.727 162.054H194.647L200.837 127.088H208.917ZM225.026 135.31C228.428 135.31 231.121 136.239 233.106 138.098C235.122 139.925 236.13 142.429 236.13 145.611C236.13 146.65 236.051 147.58 235.894 148.399C235.768 149.123 235.579 149.895 235.327 150.714H217.041C217.009 150.903 216.993 151.202 216.993 151.612C216.993 152.998 217.371 154.053 218.127 154.778C218.883 155.502 219.891 155.864 221.151 155.864C223.167 155.864 224.711 155.014 225.782 153.313H234.382C233.248 155.99 231.405 158.18 228.853 159.881C226.302 161.582 223.435 162.432 220.254 162.432C216.852 162.432 214.127 161.487 212.079 159.597C210.063 157.707 209.055 155.14 209.055 151.895C209.055 150.919 209.15 149.911 209.339 148.871C209.811 146.131 210.788 143.736 212.268 141.689C213.749 139.641 215.591 138.066 217.797 136.964C220.002 135.861 222.411 135.31 225.026 135.31ZM227.956 146.603C228.019 146.162 228.05 145.863 228.05 145.705C228.05 144.445 227.656 143.484 226.869 142.823C226.081 142.13 225.042 141.783 223.75 141.783C222.364 141.783 221.136 142.209 220.065 143.059C219.025 143.878 218.269 145.06 217.797 146.603H227.956ZM254.426 127.703L249.465 150.336H242.613L245.685 127.703H254.426ZM244.031 162.432C242.771 162.432 241.763 162.101 241.007 161.44C240.282 160.747 239.92 159.881 239.92 158.841C239.92 157.392 240.456 156.164 241.527 155.156C242.629 154.147 243.984 153.643 245.59 153.643C246.819 153.643 247.795 153.99 248.52 154.683C249.244 155.345 249.607 156.211 249.607 157.282C249.607 158.699 249.055 159.912 247.953 160.92C246.882 161.928 245.574 162.432 244.031 162.432Z"/>
</mask>
<path d="M125.074 137.484C124.728 139.437 123.925 141.059 122.665 142.35C121.405 143.642 119.893 144.54 118.129 145.044C119.704 145.39 120.948 146.162 121.861 147.359C122.775 148.556 123.232 149.958 123.232 151.564C123.232 152.068 123.184 152.557 123.09 153.029C122.617 155.801 121.263 158.006 119.026 159.644C116.79 161.251 113.939 162.054 110.474 162.054H95.0227L100.882 128.884H115.813C118.806 128.884 121.121 129.498 122.759 130.727C124.397 131.955 125.216 133.656 125.216 135.83C125.216 136.365 125.169 136.917 125.074 137.484ZM111.844 142.35C113.199 142.35 114.285 142.051 115.104 141.453C115.923 140.854 116.428 139.988 116.617 138.854C116.648 138.665 116.664 138.413 116.664 138.098C116.664 137.184 116.365 136.491 115.766 136.019C115.167 135.515 114.285 135.263 113.12 135.263H107.828L106.599 142.35H111.844ZM115.057 151.942C115.12 151.564 115.152 151.281 115.152 151.092C115.152 150.178 114.821 149.47 114.159 148.966C113.498 148.43 112.584 148.162 111.419 148.162H105.56L104.237 155.628H110.19C111.576 155.628 112.679 155.313 113.498 154.683C114.317 154.053 114.837 153.139 115.057 151.942ZM138.219 162.432C135.951 162.432 133.935 161.975 132.171 161.062C130.407 160.148 129.036 158.857 128.06 157.187C127.115 155.518 126.642 153.58 126.642 151.375C126.642 148.383 127.351 145.658 128.769 143.201C130.186 140.744 132.139 138.822 134.628 137.436C137.116 136.019 139.888 135.31 142.944 135.31C145.212 135.31 147.228 135.783 148.992 136.728C150.788 137.641 152.174 138.933 153.15 140.602C154.127 142.272 154.615 144.209 154.615 146.414C154.615 149.438 153.89 152.179 152.441 154.636C151.024 157.061 149.055 158.967 146.535 160.353C144.046 161.739 141.274 162.432 138.219 162.432ZM139.353 155.486C140.676 155.486 141.857 155.093 142.897 154.305C143.968 153.486 144.787 152.446 145.354 151.186C145.952 149.895 146.252 148.556 146.252 147.17C146.252 145.595 145.826 144.382 144.976 143.532C144.125 142.681 143.054 142.256 141.763 142.256C140.408 142.256 139.211 142.665 138.172 143.484C137.164 144.272 136.376 145.312 135.809 146.603C135.242 147.895 134.958 149.249 134.958 150.667C134.958 152.21 135.368 153.407 136.187 154.258C137.006 155.077 138.061 155.486 139.353 155.486ZM167.218 152.982C167.186 153.139 167.171 153.344 167.171 153.596C167.171 154.163 167.328 154.573 167.643 154.825C167.99 155.077 168.541 155.203 169.297 155.203H172.179L170.951 162.054H166.84C161.548 162.054 158.902 159.833 158.902 155.392C158.902 154.73 158.98 153.895 159.138 152.887L161.028 142.398H157.815L158.996 135.688H162.209L163.343 129.262H171.423L170.289 135.688H175.581L174.4 142.398H169.108L167.218 152.982ZM186.414 152.982C186.382 153.139 186.366 153.344 186.366 153.596C186.366 154.163 186.524 154.573 186.839 154.825C187.185 155.077 187.737 155.203 188.493 155.203H191.375L190.146 162.054H186.036C180.743 162.054 178.097 159.833 178.097 155.392C178.097 154.73 178.176 153.895 178.334 152.887L180.224 142.398H177.011L178.192 135.688H181.405L182.539 129.262H190.619L189.485 135.688H194.777L193.596 142.398H188.304L186.414 152.982ZM208.917 127.088L202.727 162.054H194.647L200.837 127.088H208.917ZM225.026 135.31C228.428 135.31 231.121 136.239 233.106 138.098C235.122 139.925 236.13 142.429 236.13 145.611C236.13 146.65 236.051 147.58 235.894 148.399C235.768 149.123 235.579 149.895 235.327 150.714H217.041C217.009 150.903 216.993 151.202 216.993 151.612C216.993 152.998 217.371 154.053 218.127 154.778C218.883 155.502 219.891 155.864 221.151 155.864C223.167 155.864 224.711 155.014 225.782 153.313H234.382C233.248 155.99 231.405 158.18 228.853 159.881C226.302 161.582 223.435 162.432 220.254 162.432C216.852 162.432 214.127 161.487 212.079 159.597C210.063 157.707 209.055 155.14 209.055 151.895C209.055 150.919 209.15 149.911 209.339 148.871C209.811 146.131 210.788 143.736 212.268 141.689C213.749 139.641 215.591 138.066 217.797 136.964C220.002 135.861 222.411 135.31 225.026 135.31ZM227.956 146.603C228.019 146.162 228.05 145.863 228.05 145.705C228.05 144.445 227.656 143.484 226.869 142.823C226.081 142.13 225.042 141.783 223.75 141.783C222.364 141.783 221.136 142.209 220.065 143.059C219.025 143.878 218.269 145.06 217.797 146.603H227.956ZM254.426 127.703L249.465 150.336H242.613L245.685 127.703H254.426ZM244.031 162.432C242.771 162.432 241.763 162.101 241.007 161.44C240.282 160.747 239.92 159.881 239.92 158.841C239.92 157.392 240.456 156.164 241.527 155.156C242.629 154.147 243.984 153.643 245.59 153.643C246.819 153.643 247.795 153.99 248.52 154.683C249.244 155.345 249.607 156.211 249.607 157.282C249.607 158.699 249.055 159.912 247.953 160.92C246.882 161.928 245.574 162.432 244.031 162.432Z" fill="#FFBF01"/>
<path d="M125.074 137.484L126.123 137.67L126.125 137.659L125.074 137.484ZM122.665 142.35L121.903 141.607L121.903 141.607L122.665 142.35ZM118.129 145.044L117.836 144.02L117.9 146.084L118.129 145.044ZM121.861 147.359L122.708 146.713L122.708 146.713L121.861 147.359ZM123.09 153.029L122.046 152.82L122.043 152.835L122.04 152.85L123.09 153.029ZM119.026 159.644L119.647 160.509L119.655 160.503L119.026 159.644ZM95.0227 162.054L93.9743 161.869L93.7535 163.119H95.0227V162.054ZM100.882 128.884V127.819H99.9888L99.8334 128.699L100.882 128.884ZM122.759 130.727L123.398 129.875L123.398 129.875L122.759 130.727ZM116.617 138.854L117.667 139.029L117.667 139.029L116.617 138.854ZM115.766 136.019L115.08 136.833L115.093 136.844L115.106 136.854L115.766 136.019ZM107.828 135.263V134.198H106.932L106.779 135.081L107.828 135.263ZM106.599 142.35L105.55 142.169L105.334 143.415H106.599V142.35ZM115.057 151.942L116.104 152.135L116.106 152.126L116.107 152.117L115.057 151.942ZM114.159 148.966L113.49 149.793L113.502 149.803L113.514 149.812L114.159 148.966ZM105.56 148.162V147.098H104.667L104.511 147.977L105.56 148.162ZM104.237 155.628L103.188 155.442L102.967 156.693H104.237V155.628ZM113.498 154.683L112.849 153.839L112.849 153.839L113.498 154.683ZM124.026 137.298C123.713 139.062 122.999 140.483 121.903 141.607L123.427 143.094C124.851 141.634 125.743 139.811 126.123 137.67L124.026 137.298ZM121.903 141.607C120.774 142.763 119.425 143.566 117.836 144.02L118.421 146.067C120.36 145.513 122.035 144.52 123.427 143.094L121.903 141.607ZM117.9 146.084C119.248 146.38 120.266 147.023 121.015 148.005L122.708 146.713C121.63 145.301 120.159 144.4 118.357 144.004L117.9 146.084ZM121.015 148.005C121.777 149.004 122.167 150.175 122.167 151.564H124.296C124.296 149.741 123.773 148.109 122.708 146.713L121.015 148.005ZM122.167 151.564C122.167 152.002 122.126 152.42 122.046 152.82L124.134 153.238C124.243 152.694 124.296 152.135 124.296 151.564H122.167ZM122.04 152.85C121.614 155.354 120.407 157.313 118.397 158.785L119.655 160.503C122.119 158.699 123.621 156.248 124.139 153.208L122.04 152.85ZM118.405 158.78C116.392 160.226 113.774 160.99 110.474 160.99V163.119C114.104 163.119 117.188 162.276 119.647 160.509L118.405 158.78ZM110.474 160.99H95.0227V163.119H110.474V160.99ZM96.0711 162.239L101.93 129.069L99.8334 128.699L93.9743 161.869L96.0711 162.239ZM100.882 129.948H115.813V127.819H100.882V129.948ZM115.813 129.948C118.678 129.948 120.734 130.539 122.12 131.578L123.398 129.875C121.508 128.457 118.934 127.819 115.813 127.819V129.948ZM122.12 131.578C123.472 132.592 124.152 133.967 124.152 135.83H126.281C126.281 133.345 125.323 131.319 123.398 129.875L122.12 131.578ZM124.152 135.83C124.152 136.303 124.11 136.795 124.024 137.309L126.125 137.659C126.228 137.038 126.281 136.428 126.281 135.83H124.152ZM111.844 143.415C113.35 143.415 114.679 143.082 115.733 142.312L114.476 140.593C113.892 141.02 113.048 141.286 111.844 141.286V143.415ZM115.733 142.312C116.807 141.527 117.439 140.398 117.667 139.029L115.566 138.679C115.416 139.578 115.04 140.181 114.476 140.593L115.733 142.312ZM117.667 139.029C117.712 138.757 117.728 138.439 117.728 138.098H115.599C115.599 138.386 115.584 138.573 115.566 138.679L117.667 139.029ZM117.728 138.098C117.728 136.93 117.332 135.898 116.426 135.183L115.106 136.854C115.397 137.084 115.599 137.438 115.599 138.098H117.728ZM116.452 135.204C115.587 134.476 114.418 134.198 113.12 134.198V136.327C114.153 136.327 114.748 136.554 115.08 136.833L116.452 135.204ZM113.12 134.198H107.828V136.327H113.12V134.198ZM106.779 135.081L105.55 142.169L107.648 142.532L108.877 135.445L106.779 135.081ZM106.599 143.415H111.844V141.286H106.599V143.415ZM116.107 152.117C116.172 151.728 116.216 151.373 116.216 151.092H114.087C114.087 151.189 114.068 151.401 114.007 151.767L116.107 152.117ZM116.216 151.092C116.216 149.884 115.759 148.846 114.805 148.119L113.514 149.812C113.883 150.093 114.087 150.473 114.087 151.092H116.216ZM114.829 148.138C113.919 147.401 112.739 147.098 111.419 147.098V149.227C112.43 149.227 113.077 149.459 113.49 149.793L114.829 148.138ZM111.419 147.098H105.56V149.227H111.419V147.098ZM104.511 147.977L103.188 155.442L105.285 155.814L106.608 148.348L104.511 147.977ZM104.237 156.693H110.19V154.563H104.237V156.693ZM110.19 156.693C111.732 156.693 113.087 156.342 114.147 155.527L112.849 153.839C112.27 154.284 111.421 154.563 110.19 154.563V156.693ZM114.147 155.527C115.211 154.709 115.845 153.542 116.104 152.135L114.01 151.75C113.828 152.737 113.423 153.397 112.849 153.839L114.147 155.527ZM132.171 161.062L132.66 160.117L132.66 160.117L132.171 161.062ZM128.06 157.187L127.133 157.712L127.137 157.718L127.141 157.725L128.06 157.187ZM128.769 143.201L127.846 142.669L127.846 142.669L128.769 143.201ZM134.628 137.436L135.146 138.366L135.155 138.361L134.628 137.436ZM148.992 136.728L148.489 137.666L148.499 137.671L148.509 137.676L148.992 136.728ZM152.441 154.636L151.524 154.095L151.522 154.099L152.441 154.636ZM146.535 160.353L146.022 159.42L146.017 159.423L146.535 160.353ZM142.897 154.305L143.54 155.154L143.543 155.151L142.897 154.305ZM145.354 151.186L144.388 150.739L144.383 150.75L145.354 151.186ZM144.976 143.532L144.223 144.285L144.223 144.285L144.976 143.532ZM138.172 143.484L138.827 144.323L138.83 144.321L138.172 143.484ZM135.809 146.603L134.834 146.175L134.834 146.175L135.809 146.603ZM136.187 154.258L135.42 154.996L135.427 155.003L135.434 155.011L136.187 154.258ZM138.219 161.368C136.097 161.368 134.253 160.941 132.66 160.117L131.681 162.007C133.617 163.01 135.805 163.497 138.219 163.497V161.368ZM132.66 160.117C131.07 159.293 129.851 158.141 128.979 156.65L127.141 157.725C128.222 159.573 129.743 161.004 131.681 162.007L132.66 160.117ZM128.986 156.663C128.145 155.176 127.707 153.424 127.707 151.375H125.578C125.578 153.736 126.085 155.86 127.133 157.712L128.986 156.663ZM127.707 151.375C127.707 148.559 128.372 146.019 129.691 143.733L127.846 142.669C126.33 145.297 125.578 148.207 125.578 151.375H127.707ZM129.691 143.733C131.012 141.443 132.825 139.659 135.146 138.366L134.11 136.506C131.454 137.986 129.361 140.044 127.846 142.669L129.691 143.733ZM135.155 138.361C137.472 137.041 140.06 136.375 142.944 136.375V134.245C139.716 134.245 136.761 134.996 134.101 136.511L135.155 138.361ZM142.944 136.375C145.06 136.375 146.9 136.814 148.489 137.666L149.495 135.789C147.557 134.751 145.364 134.245 142.944 134.245V136.375ZM148.509 137.676C150.131 138.502 151.362 139.654 152.231 141.14L154.069 140.065C152.985 138.211 151.444 136.781 149.475 135.779L148.509 137.676ZM152.231 141.14C153.1 142.624 153.55 144.371 153.55 146.414H155.68C155.68 144.047 155.154 141.919 154.069 140.065L152.231 141.14ZM153.55 146.414C153.55 149.26 152.871 151.812 151.524 154.095L153.358 155.177C154.91 152.546 155.68 149.616 155.68 146.414H153.55ZM151.522 154.099C150.204 156.354 148.378 158.125 146.022 159.42L147.048 161.286C149.733 159.81 151.844 157.769 153.361 155.173L151.522 154.099ZM146.017 159.423C143.698 160.714 141.107 161.368 138.219 161.368V163.497C141.442 163.497 144.395 162.764 147.053 161.283L146.017 159.423ZM139.353 156.551C140.904 156.551 142.312 156.083 143.54 155.154L142.254 153.456C141.402 154.102 140.447 154.422 139.353 154.422V156.551ZM143.543 155.151C144.758 154.222 145.687 153.04 146.325 151.623L144.383 150.75C143.886 151.853 143.177 152.75 142.25 153.459L143.543 155.151ZM146.32 151.634C146.981 150.206 147.316 148.715 147.316 147.17H145.187C145.187 148.397 144.923 149.584 144.388 150.739L146.32 151.634ZM147.316 147.17C147.316 145.404 146.835 143.885 145.729 142.779L144.223 144.285C144.818 144.879 145.187 145.787 145.187 147.17H147.316ZM145.729 142.779C144.663 141.713 143.314 141.191 141.763 141.191V143.321C142.795 143.321 143.588 143.649 144.223 144.285L145.729 142.779ZM141.763 141.191C140.175 141.191 138.745 141.678 137.513 142.648L138.83 144.321C139.677 143.653 140.641 143.321 141.763 143.321V141.191ZM137.516 142.645C136.355 143.552 135.465 144.739 134.834 146.175L136.784 147.031C137.287 145.884 137.972 144.992 138.827 144.323L137.516 142.645ZM134.834 146.175C134.208 147.602 133.894 149.103 133.894 150.667H136.023C136.023 149.396 136.276 148.187 136.784 147.031L134.834 146.175ZM133.894 150.667C133.894 152.398 134.357 153.892 135.42 154.996L136.954 153.519C136.379 152.922 136.023 152.022 136.023 150.667H133.894ZM135.434 155.011C136.477 156.053 137.814 156.551 139.353 156.551V154.422C138.308 154.422 137.535 154.1 136.94 153.505L135.434 155.011ZM167.218 152.982L168.262 153.191L168.264 153.18L168.266 153.169L167.218 152.982ZM167.643 154.825L166.978 155.656L166.997 155.671L167.017 155.686L167.643 154.825ZM172.179 155.203L173.227 155.391L173.452 154.138H172.179V155.203ZM170.951 162.054V163.119H171.841L171.999 162.242L170.951 162.054ZM159.138 152.887L158.09 152.699L158.088 152.711L158.086 152.723L159.138 152.887ZM161.028 142.398L162.076 142.586L162.301 141.333H161.028V142.398ZM157.815 142.398L156.766 142.213L156.546 143.462H157.815V142.398ZM158.996 135.688V134.623H158.102L157.948 135.503L158.996 135.688ZM162.209 135.688V136.753H163.102L163.258 135.873L162.209 135.688ZM163.343 129.262V128.197H162.45L162.295 129.077L163.343 129.262ZM171.423 129.262L172.472 129.447L172.692 128.197H171.423V129.262ZM170.289 135.688L169.241 135.503L169.02 136.753H170.289V135.688ZM175.581 135.688L176.63 135.873L176.85 134.623H175.581V135.688ZM174.4 142.398V143.462H175.294L175.448 142.582L174.4 142.398ZM169.108 142.398V141.333H168.216L168.06 142.211L169.108 142.398ZM166.174 152.773C166.123 153.027 166.106 153.309 166.106 153.596H168.235C168.235 153.38 168.249 153.252 168.262 153.191L166.174 152.773ZM166.106 153.596C166.106 154.349 166.319 155.129 166.978 155.656L168.308 153.993C168.307 153.992 168.305 153.991 168.303 153.987C168.3 153.983 168.292 153.971 168.282 153.946C168.262 153.894 168.235 153.785 168.235 153.596H166.106ZM167.017 155.686C167.639 156.138 168.468 156.267 169.297 156.267V154.138C168.614 154.138 168.341 154.016 168.269 153.964L167.017 155.686ZM169.297 156.267H172.179V154.138H169.297V156.267ZM171.131 155.015L169.903 161.866L171.999 162.242L173.227 155.391L171.131 155.015ZM170.951 160.99H166.84V163.119H170.951V160.99ZM166.84 160.99C164.317 160.99 162.623 160.456 161.571 159.573C160.554 158.72 159.966 157.395 159.966 155.392H157.837C157.837 157.83 158.572 159.836 160.202 161.204C161.795 162.542 164.071 163.119 166.84 163.119V160.99ZM159.966 155.392C159.966 154.806 160.037 154.031 160.19 153.052L158.086 152.723C157.924 153.76 157.837 154.654 157.837 155.392H159.966ZM160.186 153.076L162.076 142.586L159.98 142.209L158.09 152.699L160.186 153.076ZM161.028 141.333H157.815V143.462H161.028V141.333ZM158.863 142.582L160.045 135.873L157.948 135.503L156.766 142.213L158.863 142.582ZM158.996 136.753H162.209V134.623H158.996V136.753ZM163.258 135.873L164.392 129.447L162.295 129.077L161.161 135.503L163.258 135.873ZM163.343 130.327H171.423V128.197H163.343V130.327ZM170.375 129.077L169.241 135.503L171.338 135.873L172.472 129.447L170.375 129.077ZM170.289 136.753H175.581V134.623H170.289V136.753ZM174.533 135.503L173.351 142.213L175.448 142.582L176.63 135.873L174.533 135.503ZM174.4 141.333H169.108V143.462H174.4V141.333ZM168.06 142.211L166.17 152.795L168.266 153.169L170.156 142.585L168.06 142.211ZM186.414 152.982L187.458 153.191L187.46 153.18L187.462 153.169L186.414 152.982ZM186.839 154.825L186.174 155.656L186.193 155.671L186.213 155.686L186.839 154.825ZM191.375 155.203L192.423 155.391L192.648 154.138H191.375V155.203ZM190.146 162.054V163.119H191.037L191.194 162.242L190.146 162.054ZM178.334 152.887L177.286 152.699L177.284 152.711L177.282 152.723L178.334 152.887ZM180.224 142.398L181.271 142.586L181.497 141.333H180.224V142.398ZM177.011 142.398L175.962 142.213L175.742 143.462H177.011V142.398ZM178.192 135.688V134.623H177.298L177.143 135.503L178.192 135.688ZM181.405 135.688V136.753H182.298L182.453 135.873L181.405 135.688ZM182.539 129.262V128.197H181.646L181.491 129.077L182.539 129.262ZM190.619 129.262L191.667 129.447L191.888 128.197H190.619V129.262ZM189.485 135.688L188.436 135.503L188.216 136.753H189.485V135.688ZM194.777 135.688L195.826 135.873L196.046 134.623H194.777V135.688ZM193.596 142.398V143.462H194.489L194.644 142.582L193.596 142.398ZM188.304 142.398V141.333H187.412L187.256 142.211L188.304 142.398ZM185.37 152.773C185.319 153.027 185.302 153.309 185.302 153.596H187.431C187.431 153.38 187.445 153.252 187.458 153.191L185.37 152.773ZM185.302 153.596C185.302 154.349 185.515 155.129 186.174 155.656L187.504 153.993C187.502 153.992 187.501 153.991 187.498 153.987C187.496 153.983 187.488 153.971 187.478 153.946C187.458 153.894 187.431 153.785 187.431 153.596H185.302ZM186.213 155.686C186.834 156.138 187.664 156.267 188.493 156.267V154.138C187.809 154.138 187.536 154.016 187.465 153.964L186.213 155.686ZM188.493 156.267H191.375V154.138H188.493V156.267ZM190.327 155.015L189.098 161.866L191.194 162.242L192.423 155.391L190.327 155.015ZM190.146 160.99H186.036V163.119H190.146V160.99ZM186.036 160.99C183.513 160.99 181.819 160.456 180.766 159.573C179.75 158.72 179.162 157.395 179.162 155.392H177.033C177.033 157.83 177.768 159.836 179.397 161.204C180.991 162.542 183.266 163.119 186.036 163.119V160.99ZM179.162 155.392C179.162 154.806 179.232 154.031 179.386 153.052L177.282 152.723C177.12 153.76 177.033 154.654 177.033 155.392H179.162ZM179.381 153.076L181.271 142.586L179.176 142.209L177.286 152.699L179.381 153.076ZM180.224 141.333H177.011V143.462H180.224V141.333ZM178.059 142.582L179.24 135.873L177.143 135.503L175.962 142.213L178.059 142.582ZM178.192 136.753H181.405V134.623H178.192V136.753ZM182.453 135.873L183.587 129.447L181.491 129.077L180.357 135.503L182.453 135.873ZM182.539 130.327H190.619V128.197H182.539V130.327ZM189.57 129.077L188.436 135.503L190.533 135.873L191.667 129.447L189.57 129.077ZM189.485 136.753H194.777V134.623H189.485V136.753ZM193.729 135.503L192.547 142.213L194.644 142.582L195.826 135.873L193.729 135.503ZM193.596 141.333H188.304V143.462H193.596V141.333ZM187.256 142.211L185.366 152.795L187.462 153.169L189.352 142.585L187.256 142.211ZM208.917 127.088L209.965 127.274L210.187 126.024H208.917V127.088ZM202.727 162.054V163.119H203.62L203.775 162.24L202.727 162.054ZM194.647 162.054L193.599 161.869L193.377 163.119H194.647V162.054ZM200.837 127.088V126.024H199.944L199.789 126.903L200.837 127.088ZM207.869 126.903L201.679 161.869L203.775 162.24L209.965 127.274L207.869 126.903ZM202.727 160.99H194.647V163.119H202.727V160.99ZM195.695 162.24L201.885 127.274L199.789 126.903L193.599 161.869L195.695 162.24ZM200.837 128.153H208.917V126.024H200.837V128.153ZM233.106 138.098L232.378 138.875L232.385 138.881L232.391 138.887L233.106 138.098ZM235.894 148.399L234.848 148.198L234.846 148.207L234.845 148.216L235.894 148.399ZM235.327 150.714V151.779H236.113L236.344 151.027L235.327 150.714ZM217.041 150.714V149.649H216.139L215.99 150.539L217.041 150.714ZM218.127 154.778L218.864 154.009L218.864 154.009L218.127 154.778ZM225.782 153.313V152.248H225.194L224.881 152.745L225.782 153.313ZM234.382 153.313L235.362 153.728L235.989 152.248H234.382V153.313ZM228.853 159.881L228.263 158.995L228.263 158.995L228.853 159.881ZM212.079 159.597L211.351 160.374L211.357 160.379L212.079 159.597ZM209.339 148.871L210.386 149.062L210.388 149.052L209.339 148.871ZM212.268 141.689L211.405 141.065L211.405 141.065L212.268 141.689ZM217.797 136.964L218.273 137.916L218.273 137.916L217.797 136.964ZM227.956 146.603V147.668H228.879L229.01 146.754L227.956 146.603ZM226.869 142.823L226.165 143.622L226.175 143.63L226.184 143.638L226.869 142.823ZM220.065 143.059L220.723 143.895L220.727 143.893L220.065 143.059ZM217.797 146.603L216.779 146.291L216.357 147.668H217.797V146.603ZM225.026 136.375C228.229 136.375 230.637 137.245 232.378 138.875L233.834 137.321C231.605 135.234 228.627 134.245 225.026 134.245V136.375ZM232.391 138.887C234.146 140.477 235.065 142.674 235.065 145.611H237.195C237.195 142.184 236.098 139.372 233.821 137.309L232.391 138.887ZM235.065 145.611C235.065 146.599 234.99 147.459 234.848 148.198L236.939 148.6C237.112 147.701 237.195 146.702 237.195 145.611H235.065ZM234.845 148.216C234.728 148.89 234.55 149.618 234.309 150.401L236.344 151.027C236.607 150.172 236.808 149.356 236.943 148.581L234.845 148.216ZM235.327 149.649H217.041V151.779H235.327V149.649ZM215.99 150.539C215.943 150.82 215.929 151.194 215.929 151.612H218.058C218.058 151.21 218.075 150.986 218.091 150.889L215.99 150.539ZM215.929 151.612C215.929 153.19 216.364 154.562 217.391 155.546L218.864 154.009C218.379 153.544 218.058 152.805 218.058 151.612H215.929ZM217.391 155.546C218.384 156.498 219.676 156.929 221.151 156.929V154.8C220.107 154.8 219.383 154.506 218.864 154.009L217.391 155.546ZM221.151 156.929C223.532 156.929 225.416 155.892 226.683 153.88L224.881 152.745C224.006 154.136 222.803 154.8 221.151 154.8V156.929ZM225.782 154.377H234.382V152.248H225.782V154.377ZM233.401 152.898C232.353 155.373 230.651 157.403 228.263 158.995L229.444 160.766C232.159 158.957 234.142 156.608 235.362 153.728L233.401 152.898ZM228.263 158.995C225.893 160.575 223.233 161.368 220.254 161.368V163.497C223.637 163.497 226.711 162.589 229.444 160.766L228.263 158.995ZM220.254 161.368C217.057 161.368 214.611 160.485 212.801 158.815L211.357 160.379C213.643 162.489 216.646 163.497 220.254 163.497V161.368ZM212.807 158.82C211.043 157.167 210.12 154.901 210.12 151.895H207.99C207.99 155.378 209.083 158.247 211.351 160.374L212.807 158.82ZM210.12 151.895C210.12 150.987 210.208 150.043 210.386 149.062L208.291 148.681C208.092 149.778 207.99 150.85 207.99 151.895H210.12ZM210.388 149.052C210.835 146.455 211.755 144.216 213.131 142.313L211.405 141.065C209.821 143.257 208.787 145.806 208.289 148.69L210.388 149.052ZM213.131 142.313C214.513 140.401 216.225 138.94 218.273 137.916L217.32 136.012C214.958 137.193 212.984 138.882 211.405 141.065L213.131 142.313ZM218.273 137.916C220.321 136.892 222.566 136.375 225.026 136.375V134.245C222.256 134.245 219.682 134.831 217.32 136.012L218.273 137.916ZM229.01 146.754C229.071 146.322 229.115 145.95 229.115 145.705H226.985C226.985 145.776 226.966 146.002 226.902 146.452L229.01 146.754ZM229.115 145.705C229.115 144.208 228.636 142.917 227.554 142.008L226.184 143.638C226.677 144.052 226.985 144.682 226.985 145.705H229.115ZM227.572 142.024C226.548 141.122 225.238 140.719 223.75 140.719V142.848C224.845 142.848 225.614 143.137 226.165 143.622L227.572 142.024ZM223.75 140.719C222.127 140.719 220.665 141.223 219.402 142.225L220.727 143.893C221.607 143.194 222.601 142.848 223.75 142.848V140.719ZM219.406 142.223C218.161 143.203 217.3 144.587 216.779 146.291L218.815 146.915C219.238 145.532 219.889 144.553 220.723 143.895L219.406 142.223ZM217.797 147.668H227.956V145.538H217.797V147.668ZM254.426 127.703L255.466 127.931L255.75 126.638H254.426V127.703ZM249.465 150.336V151.401H250.321L250.505 150.564L249.465 150.336ZM242.613 150.336L241.558 150.193L241.395 151.401H242.613V150.336ZM245.685 127.703V126.638H244.755L244.63 127.559L245.685 127.703ZM241.007 161.44L240.271 162.209L240.288 162.226L240.306 162.241L241.007 161.44ZM241.527 155.156L240.808 154.37L240.803 154.375L240.797 154.38L241.527 155.156ZM248.52 154.683L247.784 155.452L247.793 155.461L247.802 155.469L248.52 154.683ZM247.953 160.92L247.234 160.134L247.229 160.14L247.223 160.145L247.953 160.92ZM253.386 127.475L248.425 150.108L250.505 150.564L255.466 127.931L253.386 127.475ZM249.465 149.271H242.613V151.401H249.465V149.271ZM243.668 150.479L246.74 127.846L244.63 127.559L241.558 150.193L243.668 150.479ZM245.685 128.767H254.426V126.638H245.685V128.767ZM244.031 161.368C242.961 161.368 242.224 161.09 241.708 160.639L240.306 162.241C241.301 163.112 242.581 163.497 244.031 163.497V161.368ZM241.743 160.671C241.237 160.187 240.985 159.602 240.985 158.841H238.855C238.855 160.159 239.328 161.307 240.271 162.209L241.743 160.671ZM240.985 158.841C240.985 157.691 241.395 156.741 242.256 155.931L240.797 154.38C239.516 155.586 238.855 157.094 238.855 158.841H240.985ZM242.245 155.941C243.136 155.127 244.228 154.708 245.59 154.708V152.579C243.74 152.579 242.123 153.168 240.808 154.37L242.245 155.941ZM245.59 154.708C246.61 154.708 247.3 154.99 247.784 155.452L249.256 153.914C248.29 152.99 247.028 152.579 245.59 152.579V154.708ZM247.802 155.469C248.284 155.909 248.542 156.479 248.542 157.282H250.671C250.671 155.942 250.205 154.78 249.238 153.897L247.802 155.469ZM248.542 157.282C248.542 158.383 248.13 159.316 247.234 160.134L248.671 161.706C249.981 160.508 250.671 159.016 250.671 157.282H248.542ZM247.223 160.145C246.36 160.957 245.318 161.368 244.031 161.368V163.497C245.831 163.497 247.403 162.899 248.682 161.695L247.223 160.145Z" fill="#01274F" mask="url(#path-3-outside-1_2062_44)"/>
</svg>
