<svg width="279" height="267" viewBox="0 0 279 267" fill="none" xmlns="http://www.w3.org/2000/svg">
<path d="M174.082 -47.8011C175.275 -49.6938 178.035 -49.6938 179.228 -47.8011L191.254 -28.727C192.29 -27.0844 194.578 -26.8196 195.962 -28.1822L212.491 -44.4629C214.094 -46.042 216.797 -45.3942 217.51 -43.26L224.443 -22.5146C225.066 -20.6495 227.269 -19.857 228.938 -20.8977L249.041 -33.4352C250.98 -34.6445 253.511 -33.3636 253.684 -31.0848L255.3 -9.83255C255.453 -7.82748 257.474 -6.51948 259.366 -7.20187L281.87 -15.3206C284.067 -16.1129 286.3 -14.2377 285.899 -11.9374L282.3 8.73301C281.946 10.7678 283.679 12.5565 285.724 12.2665L309.341 8.91719C311.705 8.58186 313.516 10.9772 312.549 13.1607L304.071 32.3036C303.213 34.2411 304.549 36.4404 306.664 36.5714L330.119 38.0245C332.549 38.175 333.826 40.9768 332.346 42.9097L319.471 59.7262C318.157 61.4423 319.002 63.9428 321.087 64.5105L343.221 70.5357C345.6 71.1833 346.261 74.2436 344.361 75.8149L327.669 89.618C325.986 91.0101 326.275 93.6701 328.218 94.668L348.042 104.849C350.244 105.98 350.244 109.129 348.042 110.26L328.218 120.441C326.275 121.439 325.986 124.099 327.669 125.491L344.361 139.294C346.261 140.865 345.6 143.926 343.221 144.573L321.087 150.599C319.002 151.166 318.157 153.667 319.471 155.383L332.346 172.199C333.826 174.132 332.549 176.934 330.119 177.085L306.665 178.538C304.549 178.669 303.213 180.868 304.071 182.805L312.549 201.948C313.516 204.132 311.705 206.527 309.341 206.192L285.724 202.842C283.679 202.552 281.946 204.341 282.3 206.376L285.899 227.046C286.3 229.347 284.067 231.222 281.87 230.43L259.366 222.311C257.474 221.628 255.453 222.936 255.3 224.942L253.684 246.194C253.511 248.473 250.98 249.754 249.041 248.544L228.938 236.007C227.269 234.966 225.066 235.758 224.443 237.624L217.51 258.369C216.797 260.503 214.094 261.151 212.491 259.572L195.962 243.291C194.578 241.929 192.29 242.193 191.254 243.836L179.228 262.91C178.035 264.803 175.275 264.803 174.082 262.91L162.056 243.836C161.021 242.193 158.732 241.929 157.348 243.291L140.82 259.572C139.217 261.151 136.513 260.503 135.8 258.369L128.867 237.624C128.244 235.758 126.041 234.966 124.373 236.007L104.269 248.544C102.33 249.754 99.7998 248.473 99.6264 246.194L98.0101 224.942C97.8576 222.936 95.8362 221.628 93.9447 222.311L71.4401 230.43C69.2437 231.222 67.0105 229.347 67.411 227.046L71.0099 206.376C71.3642 204.341 69.6309 202.552 67.586 202.842L43.9694 206.192C41.605 206.527 39.7939 204.132 40.761 201.948L49.239 182.805C50.0971 180.868 48.7608 178.669 46.6458 178.538L23.1916 177.085C20.7618 176.934 19.4845 174.132 20.9644 172.199L33.8395 155.383C35.1534 153.667 34.3087 151.166 32.2232 150.599L10.0893 144.573C7.71034 143.926 7.04973 140.865 8.94976 139.294L25.641 125.491C27.3244 124.099 27.0353 121.439 25.0921 120.441L5.26884 110.26C3.06587 109.129 3.06587 105.98 5.26884 104.849L25.0921 94.668C27.0353 93.6701 27.3244 91.0101 25.641 89.618L8.94977 75.8149C7.04973 74.2436 7.71034 71.1833 10.0893 70.5357L32.2232 64.5105C34.3087 63.9428 35.1534 61.4423 33.8395 59.7262L20.9644 42.9097C19.4845 40.9768 20.7618 38.175 23.1916 38.0245L46.6458 36.5714C48.7608 36.4404 50.0971 34.2411 49.239 32.3036L40.761 13.1607C39.7939 10.9772 41.605 8.58186 43.9694 8.91719L67.586 12.2665C69.6309 12.5565 71.3642 10.7678 71.0099 8.73301L67.411 -11.9374C67.0105 -14.2377 69.2437 -16.1129 71.4401 -15.3206L93.9447 -7.20187C95.8362 -6.51948 97.8576 -7.82748 98.0101 -9.83255L99.6264 -31.0848C99.7998 -33.3636 102.33 -34.6445 104.269 -33.4352L124.373 -20.8977C126.041 -19.857 128.244 -20.6495 128.867 -22.5146L135.8 -43.26C136.513 -45.3942 139.217 -46.042 140.82 -44.4629L157.348 -28.1822C158.732 -26.8196 161.021 -27.0844 162.056 -28.727L174.082 -47.8011Z" fill="#FFBF01"/>
<path d="M82.08 153.424C87.8933 149.264 92.5333 145.824 96 143.104C99.4667 140.384 102.453 137.61 104.96 134.784C107.52 131.904 109.013 129.157 109.44 126.544C109.6 125.797 109.68 125.104 109.68 124.464C109.68 122.917 109.253 121.744 108.4 120.944C107.6 120.144 106.373 119.744 104.72 119.744C100.613 119.744 98 122.65 96.88 128.464H83.6C84.9867 121.744 87.8667 116.704 92.24 113.344C96.6667 109.93 101.733 108.224 107.44 108.224C112.987 108.224 117.093 109.477 119.76 111.984C122.48 114.49 123.84 117.797 123.84 121.904C123.84 123.184 123.733 124.357 123.52 125.424C122.56 130.864 119.733 135.93 115.04 140.624C110.4 145.317 104.64 150.01 97.76 154.704H119.36L117.36 165.824H77.2L78.96 155.664L82.08 153.424ZM128.423 137.504C129.97 128.65 132.956 121.637 137.383 116.464C141.863 111.237 148.05 108.624 155.943 108.624C162.29 108.624 166.93 110.357 169.863 113.824C172.85 117.237 174.343 122.01 174.343 128.144C174.343 130.65 174.023 133.77 173.383 137.504C171.836 146.357 168.823 153.397 164.343 158.624C159.863 163.797 153.676 166.384 145.783 166.384C139.436 166.384 134.796 164.677 131.863 161.264C128.983 157.797 127.543 152.997 127.543 146.864C127.543 144.037 127.836 140.917 128.423 137.504ZM159.863 137.504C160.45 134.197 160.743 131.61 160.743 129.744C160.743 127.077 160.21 125.024 159.143 123.584C158.076 122.144 156.263 121.424 153.703 121.424C150.023 121.424 147.33 122.837 145.623 125.664C143.97 128.49 142.716 132.437 141.863 137.504C141.276 140.81 140.983 143.397 140.983 145.264C140.983 147.93 141.516 149.984 142.583 151.424C143.65 152.864 145.463 153.584 148.023 153.584C151.703 153.584 154.37 152.17 156.023 149.344C157.73 146.517 159.01 142.57 159.863 137.504Z" fill="#01274F"/>
<path d="M184.654 119.933C185.266 116.312 186.847 113.457 189.397 111.366C191.946 109.275 194.929 108.23 198.346 108.23C201.303 108.23 203.674 109.046 205.459 110.678C207.244 112.309 208.136 114.553 208.136 117.408C208.136 118.173 208.06 119.015 207.907 119.933C207.295 123.553 205.714 126.434 203.164 128.576C200.615 130.666 197.632 131.712 194.215 131.712C191.258 131.712 188.887 130.896 187.102 129.264C185.317 127.632 184.425 125.389 184.425 122.533C184.425 121.717 184.501 120.85 184.654 119.933ZM230.547 108.995L190.62 162.23H182.054L221.98 108.995H230.547ZM197.428 113.508C194.164 113.508 192.176 115.649 191.462 119.933C191.309 120.748 191.232 121.488 191.232 122.151C191.232 125.006 192.533 126.434 195.133 126.434C196.612 126.434 197.861 125.899 198.881 124.828C199.952 123.757 200.691 122.125 201.099 119.933C201.252 119.168 201.329 118.454 201.329 117.791C201.329 116.363 200.972 115.292 200.258 114.578C199.595 113.865 198.652 113.508 197.428 113.508ZM204.924 151.216C205.536 147.596 207.116 144.74 209.666 142.649C212.216 140.559 215.199 139.513 218.615 139.513C221.522 139.513 223.867 140.329 225.652 141.961C227.437 143.542 228.329 145.76 228.329 148.616C228.329 149.431 228.252 150.298 228.1 151.216C227.488 154.837 225.907 157.718 223.357 159.859C220.808 161.95 217.85 162.995 214.485 162.995C211.527 162.995 209.156 162.179 207.371 160.548C205.587 158.916 204.694 156.672 204.694 153.817C204.694 153.001 204.771 152.134 204.924 151.216ZM217.621 144.791C216.091 144.791 214.791 145.327 213.72 146.397C212.7 147.417 212.012 149.023 211.655 151.216C211.502 152.032 211.425 152.771 211.425 153.434C211.425 154.862 211.757 155.933 212.42 156.647C213.133 157.31 214.102 157.641 215.326 157.641C218.488 157.641 220.476 155.499 221.292 151.216C221.445 150.451 221.522 149.737 221.522 149.074C221.522 147.647 221.165 146.576 220.451 145.862C219.788 145.148 218.844 144.791 217.621 144.791Z" fill="#01274F"/>
<path d="M101.45 83.7889C99.8287 83.7889 98.372 83.5356 97.08 83.0289C95.788 82.4969 94.762 81.7369 94.002 80.7489C93.242 79.7356 92.862 78.5449 92.862 77.1769C92.862 76.9996 92.8873 76.6829 92.938 76.2269H97.232C97.1307 77.3923 97.4727 78.3676 98.258 79.1529C99.0433 79.9129 100.171 80.2929 101.64 80.2929C103.211 80.2929 104.439 79.9763 105.326 79.3429C106.213 78.6843 106.656 77.7469 106.656 76.5309C106.656 75.7963 106.428 75.1756 105.972 74.6689C105.541 74.1369 104.984 73.6936 104.3 73.3389C103.641 72.9843 102.717 72.5663 101.526 72.0849C99.9553 71.4263 98.7013 70.8309 97.764 70.2989C96.8267 69.7669 96.016 69.0323 95.332 68.0949C94.6733 67.1576 94.344 65.9796 94.344 64.5609C94.344 62.9903 94.7493 61.6223 95.56 60.4569C96.3707 59.2663 97.4853 58.3543 98.904 57.7209C100.348 57.0876 101.969 56.7709 103.768 56.7709C105.567 56.7709 107.112 57.0749 108.404 57.6829C109.721 58.2656 110.709 59.1016 111.368 60.1909C112.052 61.2549 112.356 62.5089 112.28 63.9529H107.72C107.821 62.9143 107.505 62.0529 106.77 61.3689C106.035 60.6596 104.971 60.3049 103.578 60.3049C102.109 60.3049 100.931 60.6469 100.044 61.3309C99.1827 61.9896 98.752 62.8889 98.752 64.0289C98.752 64.7383 98.9673 65.3589 99.398 65.8909C99.854 66.3976 100.424 66.8409 101.108 67.2209C101.792 67.5756 102.717 68.0063 103.882 68.5129C105.453 69.2223 106.707 69.8556 107.644 70.4129C108.607 70.9703 109.43 71.7303 110.114 72.6929C110.798 73.6303 111.14 74.7956 111.14 76.1889C111.14 77.6583 110.735 78.9756 109.924 80.1409C109.113 81.2809 107.973 82.1803 106.504 82.8389C105.035 83.4723 103.35 83.7889 101.45 83.7889ZM115.04 72.9589C115.42 70.8563 116.18 68.9943 117.32 67.3729C118.485 65.7516 119.904 64.4976 121.576 63.6109C123.248 62.6989 124.996 62.2429 126.82 62.2429C128.467 62.2429 129.847 62.5723 130.962 63.2309C132.077 63.8643 132.913 64.6623 133.47 65.6249L134.002 62.5849H138.372L134.686 83.5229H130.316L130.886 80.4069C129.974 81.3949 128.821 82.2183 127.428 82.8769C126.06 83.5356 124.565 83.8649 122.944 83.8649C121.373 83.8649 119.967 83.5103 118.726 82.8009C117.51 82.0916 116.547 81.0909 115.838 79.7989C115.154 78.4816 114.812 76.9743 114.812 75.2769C114.812 74.5169 114.888 73.7443 115.04 72.9589ZM132.178 73.0349C132.279 72.5536 132.33 72.0343 132.33 71.4769C132.33 69.7796 131.823 68.4496 130.81 67.4869C129.822 66.4989 128.581 66.0049 127.086 66.0049C125.971 66.0049 124.882 66.2836 123.818 66.8409C122.754 67.3729 121.829 68.1709 121.044 69.2349C120.259 70.2736 119.739 71.5149 119.486 72.9589C119.385 73.4403 119.334 73.9596 119.334 74.5169C119.334 76.2396 119.828 77.6076 120.816 78.6209C121.829 79.6089 123.083 80.1029 124.578 80.1029C125.693 80.1029 126.782 79.8243 127.846 79.2669C128.91 78.7096 129.835 77.8989 130.62 76.8349C131.405 75.7456 131.925 74.4789 132.178 73.0349ZM149.154 79.6469L158.084 62.5849H162.758L151.092 83.5229H145.848L141.592 62.5849H146.228L149.154 79.6469ZM175.038 62.2429C177.648 62.2429 179.725 62.9776 181.27 64.4469C182.841 65.9163 183.626 67.8923 183.626 70.3749C183.626 70.9576 183.563 71.6543 183.436 72.4649C183.335 73.0223 183.158 73.7063 182.904 74.5169H166.906C166.881 74.6943 166.868 74.9603 166.868 75.3149C166.868 76.8096 167.324 78.0003 168.236 78.8869C169.174 79.7736 170.39 80.2169 171.884 80.2169C174.24 80.2169 176.052 79.2416 177.318 77.2909H181.992C181.03 79.2163 179.611 80.7996 177.736 82.0409C175.862 83.2569 173.696 83.8649 171.238 83.8649C169.49 83.8649 167.958 83.5229 166.64 82.8389C165.323 82.1549 164.297 81.1796 163.562 79.9129C162.828 78.6209 162.46 77.1136 162.46 75.3909C162.46 74.6563 162.536 73.8709 162.688 73.0349C163.068 70.8816 163.841 68.9943 165.006 67.3729C166.172 65.7263 167.616 64.4596 169.338 63.5729C171.086 62.6863 172.986 62.2429 175.038 62.2429ZM179.104 71.4009C179.155 70.9449 179.18 70.6156 179.18 70.4129C179.18 69.0196 178.712 67.9176 177.774 67.1069C176.862 66.2963 175.672 65.8909 174.202 65.8909C172.657 65.8909 171.264 66.3849 170.022 67.3729C168.781 68.3609 167.932 69.7036 167.476 71.4009H179.104Z" fill="#01274F"/>
</svg>
