<svg width="279" height="268" viewBox="0 0 279 268" fill="none" xmlns="http://www.w3.org/2000/svg">
<path d="M174.08 -47.7854C175.273 -49.6828 178.038 -49.6828 179.23 -47.7854L191.253 -28.6603C192.288 -27.0133 194.582 -26.748 195.966 -28.1152L212.486 -44.4367C214.089 -46.0204 216.798 -45.3722 217.51 -43.2343L224.443 -22.4254C225.066 -20.557 227.273 -19.7637 228.943 -20.8081L249.037 -33.3775C250.976 -34.5906 253.51 -33.3095 253.683 -31.0286L255.301 -9.69986C255.453 -7.69326 257.477 -6.38477 259.369 -7.06947L281.869 -15.2109C284.066 -16.0056 286.301 -14.1314 285.901 -11.8303L282.298 8.9266C281.945 10.9615 283.679 12.7493 285.724 12.4584L309.346 9.09832C311.709 8.76213 313.521 11.1549 312.557 13.3386L304.064 32.5708C303.209 34.5077 304.545 36.7042 306.658 36.8355L330.13 38.294C332.557 38.4449 333.835 41.2425 332.359 43.1758L319.459 60.0752C318.149 61.7909 318.994 64.2869 321.076 64.8554L343.238 70.9062C345.613 71.5548 346.274 74.6099 344.378 76.182L327.655 90.0532C325.976 91.4456 326.265 94.1001 328.204 95.0988L348.06 105.327C350.259 106.46 350.259 109.603 348.06 110.735L328.204 120.964C326.265 121.962 325.976 124.617 327.655 126.009L344.378 139.88C346.274 141.453 345.613 144.508 343.238 145.156L321.076 151.207C318.994 151.776 318.149 154.271 319.459 155.987L332.359 172.887C333.835 174.82 332.557 177.618 330.13 177.768L306.658 179.227C304.545 179.358 303.209 181.555 304.064 183.492L312.557 202.724C313.521 204.908 311.709 207.3 309.346 206.964L285.724 203.604C283.679 203.313 281.945 205.101 282.298 207.136L285.901 227.893C286.301 230.194 284.066 232.068 281.869 231.273L259.369 223.132C257.477 222.447 255.453 223.756 255.301 225.762L253.683 247.091C253.51 249.372 250.976 250.653 249.037 249.44L228.943 236.871C227.273 235.826 225.066 236.619 224.443 238.488L217.51 259.297C216.798 261.435 214.089 262.083 212.486 260.499L195.966 244.178C194.582 242.81 192.288 243.076 191.253 244.723L179.23 263.848C178.038 265.745 175.273 265.745 174.08 263.848L162.058 244.723C161.022 243.076 158.728 242.81 157.345 244.178L140.824 260.499C139.221 262.083 136.512 261.435 135.8 259.297L128.867 238.488C128.244 236.619 126.037 235.826 124.368 236.871L104.273 249.44C102.334 250.653 99.7999 249.372 99.6269 247.091L98.0095 225.762C97.8574 223.756 95.8337 222.447 93.9414 223.132L71.4409 231.273C69.2448 232.068 67.0094 230.194 67.4089 227.893L71.012 207.136C71.3653 205.101 69.6313 203.313 67.5866 203.604L43.9647 206.964C41.6013 207.3 39.7894 204.908 40.7536 202.724L49.2459 183.492C50.1012 181.555 48.7652 179.358 46.6519 179.227L23.1804 177.768C20.7529 177.618 19.4753 174.82 20.9511 172.887L33.8512 155.987C35.1609 154.271 34.3167 151.776 32.2345 151.207L10.0728 145.156C7.69727 144.508 7.03666 141.453 8.93201 139.88L25.6556 126.009C27.3343 124.617 27.0454 121.962 25.1066 120.964L5.24985 110.735C3.05127 109.603 3.05127 106.46 5.24985 105.327L25.1066 95.0988C27.0454 94.1001 27.3343 91.4456 25.6556 90.0532L8.93202 76.182C7.03666 74.6099 7.69727 71.5548 10.0728 70.9062L32.2345 64.8554C34.3167 64.2869 35.1609 61.7909 33.8512 60.0752L20.9511 43.1758C19.4753 41.2424 20.7529 38.4449 23.1804 38.294L46.6519 36.8355C48.7652 36.7042 50.1012 34.5077 49.2459 32.5708L40.7536 13.3386C39.7894 11.1549 41.6013 8.76213 43.9647 9.09831L67.5866 12.4584C69.6313 12.7493 71.3653 10.9615 71.012 8.9266L67.4089 -11.8303C67.0094 -14.1314 69.2448 -16.0056 71.4409 -15.2109L93.9414 -7.06947C95.8337 -6.38477 97.8574 -7.69326 98.0095 -9.69985L99.6269 -31.0286C99.7999 -33.3095 102.334 -34.5906 104.273 -33.3775L124.368 -20.8081C126.037 -19.7637 128.244 -20.557 128.867 -22.4254L135.8 -43.2343C136.512 -45.3721 139.221 -46.0204 140.824 -44.4367L157.345 -28.1152C158.728 -26.748 161.022 -27.0133 162.058 -28.6603L174.08 -47.7854Z" fill="#FFBF01"/>
<path d="M99.84 123.059L102.08 110.339H124.24L114.24 167.059H100L107.76 123.059H99.84ZM172.958 120.579H147.998L146.078 131.619C147.358 130.446 149.011 129.486 151.038 128.739C153.065 127.992 155.198 127.619 157.438 127.619C162.451 127.619 166.131 128.979 168.478 131.699C170.878 134.419 172.078 137.939 172.078 142.259C172.078 143.539 171.945 145.032 171.678 146.739C170.558 152.979 167.918 157.939 163.758 161.619C159.598 165.246 154.318 167.059 147.918 167.059C142.051 167.059 137.545 165.726 134.398 163.059C131.251 160.339 129.678 156.712 129.678 152.179C129.678 151.699 129.731 150.872 129.838 149.699H143.118C143.171 151.352 143.731 152.739 144.798 153.859C145.865 154.926 147.438 155.459 149.518 155.459C152.025 155.459 154.025 154.659 155.518 153.059C157.011 151.459 158.025 149.326 158.558 146.659C158.665 146.126 158.718 145.406 158.718 144.499C158.718 140.552 156.611 138.579 152.398 138.579C150.585 138.579 149.011 139.032 147.678 139.939C146.398 140.792 145.438 141.939 144.798 143.379H131.598L137.678 108.579H175.038L172.958 120.579Z" fill="#01274F"/>
<path d="M184.654 120.322C185.266 116.701 186.847 113.846 189.397 111.755C191.946 109.664 194.929 108.619 198.346 108.619C201.303 108.619 203.674 109.435 205.459 111.067C207.244 112.698 208.136 114.942 208.136 117.798C208.136 118.562 208.06 119.404 207.907 120.322C207.295 123.942 205.714 126.823 203.164 128.965C200.615 131.055 197.632 132.101 194.215 132.101C191.258 132.101 188.887 131.285 187.102 129.653C185.317 128.021 184.425 125.778 184.425 122.922C184.425 122.106 184.501 121.239 184.654 120.322ZM230.547 109.384L190.62 162.619H182.054L221.98 109.384H230.547ZM197.428 113.897C194.164 113.897 192.176 116.038 191.462 120.322C191.309 121.137 191.232 121.877 191.232 122.54C191.232 125.395 192.533 126.823 195.133 126.823C196.612 126.823 197.861 126.288 198.881 125.217C199.952 124.146 200.691 122.514 201.099 120.322C201.252 119.557 201.329 118.843 201.329 118.18C201.329 116.752 200.972 115.681 200.258 114.967C199.595 114.254 198.652 113.897 197.428 113.897ZM204.924 151.605C205.536 147.985 207.116 145.129 209.666 143.039C212.216 140.948 215.199 139.903 218.615 139.903C221.522 139.903 223.867 140.718 225.652 142.35C227.437 143.931 228.329 146.149 228.329 149.005C228.329 149.82 228.252 150.687 228.1 151.605C227.488 155.226 225.907 158.107 223.357 160.248C220.808 162.339 217.85 163.384 214.485 163.384C211.527 163.384 209.156 162.568 207.371 160.937C205.587 159.305 204.694 157.061 204.694 154.206C204.694 153.39 204.771 152.523 204.924 151.605ZM217.621 145.18C216.091 145.18 214.791 145.716 213.72 146.786C212.7 147.806 212.012 149.412 211.655 151.605C211.502 152.421 211.425 153.16 211.425 153.823C211.425 155.251 211.757 156.322 212.42 157.036C213.133 157.699 214.102 158.03 215.326 158.03C218.488 158.03 220.476 155.888 221.292 151.605C221.445 150.84 221.522 150.126 221.522 149.463C221.522 148.036 221.165 146.965 220.451 146.251C219.788 145.537 218.844 145.18 217.621 145.18Z" fill="#01274F"/>
<path d="M110.45 84.0682C108.829 84.0682 107.372 83.8149 106.08 83.3082C104.788 82.7762 103.762 82.0162 103.002 81.0282C102.242 80.0149 101.862 78.8242 101.862 77.4562C101.862 77.2789 101.887 76.9622 101.938 76.5062H106.232C106.131 77.6716 106.473 78.6469 107.258 79.4322C108.043 80.1922 109.171 80.5722 110.64 80.5722C112.211 80.5722 113.439 80.2556 114.326 79.6222C115.213 78.9636 115.656 78.0262 115.656 76.8102C115.656 76.0756 115.428 75.4549 114.972 74.9482C114.541 74.4162 113.984 73.9729 113.3 73.6182C112.641 73.2636 111.717 72.8456 110.526 72.3642C108.955 71.7056 107.701 71.1102 106.764 70.5782C105.827 70.0462 105.016 69.3116 104.332 68.3742C103.673 67.4369 103.344 66.2589 103.344 64.8402C103.344 63.2696 103.749 61.9016 104.56 60.7362C105.371 59.5456 106.485 58.6336 107.904 58.0002C109.348 57.3669 110.969 57.0502 112.768 57.0502C114.567 57.0502 116.112 57.3542 117.404 57.9622C118.721 58.5449 119.709 59.3809 120.368 60.4702C121.052 61.5342 121.356 62.7882 121.28 64.2322H116.72C116.821 63.1936 116.505 62.3322 115.77 61.6482C115.035 60.9389 113.971 60.5842 112.578 60.5842C111.109 60.5842 109.931 60.9262 109.044 61.6102C108.183 62.2689 107.752 63.1682 107.752 64.3082C107.752 65.0176 107.967 65.6382 108.398 66.1702C108.854 66.6769 109.424 67.1202 110.108 67.5002C110.792 67.8549 111.717 68.2856 112.882 68.7922C114.453 69.5016 115.707 70.1349 116.644 70.6922C117.607 71.2496 118.43 72.0096 119.114 72.9722C119.798 73.9096 120.14 75.0749 120.14 76.4682C120.14 77.9376 119.735 79.2549 118.924 80.4202C118.113 81.5602 116.973 82.4596 115.504 83.1182C114.035 83.7516 112.35 84.0682 110.45 84.0682ZM124.04 73.2382C124.42 71.1356 125.18 69.2736 126.32 67.6522C127.485 66.0309 128.904 64.7769 130.576 63.8902C132.248 62.9782 133.996 62.5222 135.82 62.5222C137.467 62.5222 138.847 62.8516 139.962 63.5102C141.077 64.1436 141.913 64.9416 142.47 65.9042L143.002 62.8642H147.372L143.686 83.8022H139.316L139.886 80.6862C138.974 81.6742 137.821 82.4976 136.428 83.1562C135.06 83.8149 133.565 84.1442 131.944 84.1442C130.373 84.1442 128.967 83.7896 127.726 83.0802C126.51 82.3709 125.547 81.3702 124.838 80.0782C124.154 78.7609 123.812 77.2536 123.812 75.5562C123.812 74.7962 123.888 74.0236 124.04 73.2382ZM141.178 73.3142C141.279 72.8329 141.33 72.3136 141.33 71.7562C141.33 70.0589 140.823 68.7289 139.81 67.7662C138.822 66.7782 137.581 66.2842 136.086 66.2842C134.971 66.2842 133.882 66.5629 132.818 67.1202C131.754 67.6522 130.829 68.4502 130.044 69.5142C129.259 70.5529 128.739 71.7942 128.486 73.2382C128.385 73.7196 128.334 74.2389 128.334 74.7962C128.334 76.5189 128.828 77.8869 129.816 78.9002C130.829 79.8882 132.083 80.3822 133.578 80.3822C134.693 80.3822 135.782 80.1036 136.846 79.5462C137.91 78.9889 138.835 78.1782 139.62 77.1142C140.405 76.0249 140.925 74.7582 141.178 73.3142ZM158.154 79.9262L167.084 62.8642H171.758L160.092 83.8022H154.848L150.592 62.8642H155.228L158.154 79.9262ZM184.038 62.5222C186.648 62.5222 188.725 63.2569 190.27 64.7262C191.841 66.1956 192.626 68.1716 192.626 70.6542C192.626 71.2369 192.563 71.9336 192.436 72.7442C192.335 73.3016 192.158 73.9856 191.904 74.7962H175.906C175.881 74.9736 175.868 75.2396 175.868 75.5942C175.868 77.0889 176.324 78.2796 177.236 79.1662C178.174 80.0529 179.39 80.4962 180.884 80.4962C183.24 80.4962 185.052 79.5209 186.318 77.5702H190.992C190.03 79.4956 188.611 81.0789 186.736 82.3202C184.862 83.5362 182.696 84.1442 180.238 84.1442C178.49 84.1442 176.958 83.8022 175.64 83.1182C174.323 82.4342 173.297 81.4589 172.562 80.1922C171.828 78.9002 171.46 77.3929 171.46 75.6702C171.46 74.9356 171.536 74.1502 171.688 73.3142C172.068 71.1609 172.841 69.2736 174.006 67.6522C175.172 66.0056 176.616 64.7389 178.338 63.8522C180.086 62.9656 181.986 62.5222 184.038 62.5222ZM188.104 71.6802C188.155 71.2242 188.18 70.8949 188.18 70.6922C188.18 69.2989 187.712 68.1969 186.774 67.3862C185.862 66.5756 184.672 66.1702 183.202 66.1702C181.657 66.1702 180.264 66.6642 179.022 67.6522C177.781 68.6402 176.932 69.9829 176.476 71.6802H188.104Z" fill="#01274F"/>
</svg>
